/* XPM */
static char *result[] = {
/* columns rows colors chars-per-pixel */
"64 64 21 1 ",
"  c #1B1A1D",
". c #28272F",
"X c #63181A",
"o c #70252C",
"O c #353441",
"+ c #665254",
"@ c #735F66",
"# c #AC1717",
"$ c #AD3434",
"% c #EF1A1A",
"& c #AE5151",
"* c #87797A",
"= c #CF7777",
"- c #F17979",
"; c #8D8083",
": c #94868C",
"> c #A2888C",
", c #B18B8B",
"< c #D2B1B1",
"1 c #E1A8A8",
"2 c #F3D8D8",
/* pixels */
"         OO                                              OO     ",
"         OO                                              OO     ",
"    OOOOOOOOOOOOOOOOOOOOOOOOOOOOO,,OOOOOOOOOOOOOOOOOOOOOOOOOOOOO",
"    OOOOOOOOOOOOOOOOOOOOOOOOOOOOO,,OOOOOOOOOOOOOOOOOOOOOOOOOOOOO",
"OOOO .O  OOOOOOOOOOOOOOOOOOOOOOOOOOOOOOOOOOOOOOOOOO  OOOOOOOOOOO",
"..OO .O..OOOOOOOOOOOOO..OOOOOOOOOOOOOOOOOOOOOOOOOOO  OOOOOOOOOOO",
"  OO .OOOOOOOOOOOOOOOO  OOOOOOOOOOOOOOOOOOOOOOOOOOO  OOOOOOOOOOO",
"    OOOOOOOOO2222222OOOOOOOOOOOOO22OO2:OOO222222,<222,,222222222",
"    OOOOOOOOO2222222OOOOOOOOOOOOO22OO2:OOO222222,<222,,222222222",
"    OOOOOOOOO2222222OO    OOOOO2222,,2:OOO222222,<222,,222222222",
"    OOOOOOOOO2222222OO    OOOOO2222,,2:OOO222222,<222,,222222222",
"           ,,,,,,,,,    OO   OO,,OOOO     ,,,,,,,,,,,  ,,OOOO,,,",
"           ,,,,,,,,,    OO   OO,,OOOO     ,,,,,,,,,,,  ,,OOOO,,,",
"OOOO .OOO22222222222OOOO  ,<222222222,@OOO222222222222222,,222OO",
"OOOO .OOO22222222222OOOO  ,<222222222,@OOO222222222222222,,222OO",
"OOOOOOOOO22222222222OOOOOO22222222222,,,OO222222OOO  OOOOOOOOOOO",
"OOOOOOOOO22222222222OOOO::22222222222<>@OO222222OOO..OOOOOOOOOOO",
"OOOOOOOOO22222222222OOOO22222222222222:OOO222222OOOOOOOOOOOOOOOO",
"OOOOOOOOO22222222222OO2222222222222222:OOO222222OOO  OOOOOOOOOOO",
"OOOOOOOOO22222222222OO2222222222222222:OOO222222OOO  OOOOOOOOOOO",
"OOOOOOOOOOO,,2222222OOOO,,222222222222:OOO222222,,,,,OOOOOOOO   ",
"OOOOOOOOOOO,,2222222OOOO,,222222222222:OOO222222,,,,,OOOOOOOO   ",
"OO           ,,,,,,,         ,,,,,,,,,+   ,,,,,,,,,,,,,,,,,     ",
"OO           ,,,,,,,         ,,,,,,,,,+   ,,,,,,,,,,,,,,,,,     ",
"OOOO,,,,,OO,,222<,22OOOOOO,,,22222222,,,,,22222222222222222222OO",
"OOOO,,,,,OO,,222<,22OOOOOO,,,22222222,,,,,22222222222222222222OO",
"  OOOOOOOOOOO222<,22OOOOOOOOO222222222:OOO2222222222222222222222",
"..OOOOOOOOOOO222<,22OOOOOOOOO222222222:OOO222222*;:2222222222222",
"OOOOOOOOOOOOO222<,22OOOOOOOOO222222222:OOO222222 .O2222222222222",
"OOOOOOOOOOOOO222<,22OOOOOOOOO222222222:OOOOOOOOOOOOOOOO222222222",
"OOOOOOOOOOOOO222<,22OOOOOOOOO222222222:OOOOOOOOOOOOOOOO222222222",
"             ,,,,,,,         ,,,,,,,,,+         O.     ,,,,,,,,,",
"             ,,,,,,,         ,,,,,,,,,+         O.     ,,,,,,,,,",
"             ,,,,,,,         ,,,,,,,,,@OOO22    OOOOOOO,,,,,,2,,",
"             ,,,,,,,         ,,,,,,,,,@OOO22    OOOOOOO,,,,,,2,,",
",,,,,,,,,OO,,22,,,22,,####,,,222222222<,222222222-%22222222222##",
",,,,,,,,,OO,,22,,,22,,####,,,222222222<,222222222-%22222222222##",
"#########  ##2222222,,  ##,&#222222222222222222222222222222222##",
"#########  ##2222222,,  ##&$#2222222221=2222222222222222222222##",
"#########  ##2222222,,  #####222222222=#2222222222222222222222##",
"#######OO  ##2222222##  #####222222222=#OO,,2222222222222,,#####",
"#######OO  ##2222222##  #####222222222=#OO,,2222222222222,,#####",
"OO#####  ##OO,,,&#####  #########,,,,,&#OO#######&,#############",
"OO#####  ##OO,,,&#####  #########,,,,,&#OO#######&,#############",
"OO     ######OO#oO    ##,,#####OO     .O  ##             OO#####",
"OO     ######OO#oO    ##,,#####OO     .O  ##             OO#####",
",,,,,,,,,##,,,,,,,,,,,,,22,,,,,,,,,,,,,,,,,,,,,,,,,,,,,,,,,,, ,,",
",,,,,,,,,##,,,,,,,,,,,,,22,,,,,,,,,,,,,,,,,,,,,,,,,,,,,,,,,,, ,,",
"#########  ######################OO#####,,######################",
"#########  ######################OO#####,,######################",
"#########  #####################################################",
"#########  ######################OO#############################",
"#########  ######################OO#############################",
"OO#######OO######################  #############################",
"OO#######OO######################  #############################",
"     X#  ##OO                                 ##           ###  ",
"     X#  ##OO                                 ##           ###  ",
"####,,,##,,##OO###,,,,,,###&,,,,,,,,,,,,    ,,###oO##,,##,,,,,,,",
"####,,,##,,##OO###,,,,,,###&,,,,,,,,,,,,    ,,###oO##,,##,,,,,,,",
"  ########################,&############,,#######oO#############",
"  ########################,&############,,#######oO#############",
"  OOOo################OO#########################oO#############",
"OO####################OO###########,,############oO###########OO",
"OO####################OO###########,,############oO###########OO"
};
