/* XPM */
static char *result[] = {
/* columns rows colors chars-per-pixel */
"64 64 12 1 ",
"  c #311F5F",
". c #2A3971",
"X c #235383",
"o c #287A8D",
"O c #597185",
"+ c #1687A7",
"@ c #1AAEB1",
"# c #528B97",
"$ c #1FD5BC",
"% c #8F8F88",
"& c #81C3AC",
"* c #EDFFB1",
/* pixels */
"+++++X ++++**+++++++++++   X+++****++$@+$$$$++$$+@$**+++++++++++",
"+++++X ++++**+++++++++++   X+++****++$@+$$$$++$$+@$**+++++++++++",
"++++ X+++++**+++++    ++  +++++**$$$$$$$$$$$$$$$$$$**+++++++++++",
"++++ X+++++**+++++    ++  +++++**$$$$$$$$$$$$$$$$$$**+++++++++++",
"           ++                  **                  +++++++++++++",
"XX%% .XXX  XX  XXXXXXX%%XXXXXXX&&XXXXX. %%    XX .X++++++++++&@@",
"++** X+++      +++++++**++++++++++++++X **    ++ X+++++++++++*$$",
"++**++++++++++++++++++**++++++++++++++X **++  +++++      ++++*$$",
"++**++++++++++++++++++**++++++++++++++X **++  +++++      ++++*$$",
"++**+++++++++++ X+++  **+++++++++    +++**++               ++*$$",
"++**+++++++++++ X+++  **+++++++++    +++**++               ++*$$",
"++**+++++++++++ X+    **++++++++++++++X **++++   X+      ++++*$$",
"++**+++++++++++ X+    **++++++++++++++X **++++   X+      ++++*$$",
"****************************************************************",
"****************************************************************",
"$$$$$@+$$$$**++++++++++++++++++**++++ X+++++  +++++**+++++++++++",
"$$$$$@+@@$$**++++++++++++++++++**XXXX .XXXXX  XX+++**++XX++XX+++",
"$$$$$@+++$$**++++++++++++++++++**               +++**++  ++  +++",
"$$$$+@$$$$$**++++++++++++++++++**++              X+**    +++++  ",
"$$$$+@$$$$$**++++++++++++++++++**++              X+**    +++++  ",
"    +X                         **                               ",
"    +X                         **                               ",
"$$**++++++++++++++++++**++++++++++++++++**++++++$$$$$$$$$$$$$+$$",
"$$**++++++++++++++++++**++++++++++++++++**++++++$$$$$$$$$$$$$+$$",
"++**++++++++++++++++++**+++X            **+++++++++++++++++$$*++",
"++**++++++++++++++++++**+++X            **+++++++++++++++++$$*++",
"++**++++++++++++++++++**++       ++     **+++++++++++++++++$$*++",
"++**++++++++++++++++++**++       XX     **+++++++++++++++@@$$*@@",
"++**++++++++++++++++++**++              **+++++++++++++++$$$$*$$",
"*******************************++*******************************",
"*******************************++*******************************",
"  +++++++++++++++++++++++++++$$**++++++++++++++++&*++++       ++",
"  +++++++++++++++++++++++++++$$**++++++++++++++++&*++++       ++",
"    +++++++++++++++++++++++++$$**++++++++++++++++&*++++++++   ++",
"    +++++++++++++++++++++++++$$**++++++++++++++++&*++++++++   ++",
"  ++ X+++++++++++++++++++++++++**+++++++++$$+++++&*++++  ++  +++",
"  ++ X+++++++++++++++++++++++++**+++++++++$$+++++&*++++  ++  +++",
"             ++                **                %*++++++++++   ",
"XX%%%OXXXXXXX++XXXXXXX%%XXXXXoo&&XXXXXXX%%XXXXXXX#&++++++++++%XX",
"++***&++++++++++++++++**+++++$$+++++++++**+++++++++++++++++++*++",
"+++++++++       X+    **++++++++++++++++**      +X ++++++++  *  ",
"+++++++++       X+    **++++++++++++++++**      +X ++++++++  *  ",
"++++*&+      ++     ++**++++++++++++++++**  ++     ++  ++++  *  ",
"++++*&+      ++     ++**++++++++++++++++**  ++     ++  ++++  *  ",
"++++*&+    +++++X ++++**++++++++++++++++**               ++  *  ",
"++++*&+    +++++X ++++**++++++++++++++++**               ++  *  ",
"****************************************************************",
"****************************************************************",
"+++++++++++++**       ++       **       +++++++++&*++  +++++++++",
"+++++++++++++**       ++       **       +++++++++&*++  +++++++++",
"+++++++++++++**   ++    ++     **  +++X   ++     %*      +++++++",
"++$$$@+++++$$**                **                %*    +++++++++",
"++$$$@+++++$$**                **                %*    +++++++++",
"+++++++++++++**+++        +++  **++++++++++++++++&*             ",
"+++++++++++++**+++        +++  **++++++++++++++++&*             ",
"$$$$*&++++++++++++++++**+++++++++$$$$+@$**++  +++++++++++++**+++",
"$$$$*&++++++++++++++++**+++++++++$$$$+@$**++  +++++++++++++**+++",
"++$$*&++++++++++++++++**++++++++++++++@$**    +++++++++++++**+++",
"++$$*&++++++++++++++++**++++++++++++++@$**    +++++++++++++**+++",
"$$$$*&+++++    +++++++**$$++++++++++++@$**++  +++++++++++++**+++",
"$$$$*&+++++    +++++++**$$++++++++++++@$**++  +++++++++++++**+++",
"$$$$*&++++++++++++++++**$$$$$$$$$++$$$$$**+++++++++++++++++**+++",
"***************++++++++++++++++*********************************",
"***************++++++++++++++++*********************************"
};
