/* XPM */
static char *result[] = {
/* columns rows colors chars-per-pixel */
"64 64 8 1 ",
"  c #311F5F",
". c #605773",
"X c #235383",
"o c #1687A7",
"O c #8F8F88",
"+ c #BEC79C",
"@ c #81C3AC",
"# c #EDFFB1",
/* pixels */
"     O#####  ##     ##       ##  ##  #O          O#  ####  ##   ",
"     O#####  ##     ##       ##  ##  #O          O#  ####  ##   ",
"           ##       ##       ##                        ##  oo   ",
"           ##       ##       ##                        ##  oo   ",
"##  ############################################################",
"OO  O+#OOOOOOOO#+OOOOOOOOO###OOOOOOOOO+#######OOOOOOO@@##OO##OOO",
"     O#        #O         ###         O#######       oo##  ##   ",
"     O#        #O         #####  ####       ##           ##  #  ",
"     O#        #O         #####  ####       ##           ##  #  ",
"##  ###  ##         ###########         ##  #####O         ## ##",
"##  ###  ##         ###########         ##  #####O         ## ##",
"##                  #######O ##         ##                    ##",
"##                  #######O ##         ##                    ##",
"##                  ##       ##       Xo                   oo   ",
"##                  ##       ##       Xo                   oo   ",
"     O#    #####O ##    ##         ##       ##       #########  ",
"     .O    ##OO#O ##    OO         ##       ##       #########  ",
"           ##  #O ##               ##       ##       #########  ",
"################################################################",
"################################################################",
"##                  ###########    ###O                    oo   ",
"##                  ###########    ###O                    oo   ",
"##         ##  ###  ####  #O #########O                         ",
"##         ##  ###  ####  #O #########O                         ",
"#######  ##  #############                  ###########       ##",
"#######  ##  #############                  ###########       ##",
"#### O#        #O ########                  ####   ####         ",
"OOOO O#        #O OOOOOOOO                  ##OO   OO##         ",
"     O#        #O                           ##       ##         ",
"oo         #####O   ####     ##         ##  #####O         #####",
"oo         #####O   ####     ##         ##  #####O         #####",
"oo         ##   O#  ##       ##         #########O         ##   ",
"oo         ##   O#  ##       ##         #########O         ##   ",
"################################################################",
"################################################################",
"##   O#        #O          O#######         ####   ####         ",
"##   O#        #O          O#######         ####   ####         ",
"  ## O#        #O          O###  ##         ##       ##         ",
"OO## O#OOOO    O.   OOOOOO O###  OO     OOOO##  OOOOO##OOOO     ",
"#### O#####         ###### O###         ######  ###########     ",
"#####O ####         ######   ##         ##      ###########     ",
"#####O ####         ######   ##         ##      ###########     ",
"####                         ##                                 ",
"####                         ##                                 ",
"     O##########O                  ###########       ##         ",
"     O##########O                  ###########       ##         ",
"     O#    ##  #O                  ###########       oo         ",
"     O#    ##  #O                  ###########       oo         ",
"oo##############################################################",
"oo##############################################################",
"##  #######             ##   ##         ###########      ##     ",
"####   ####           ##     ##         ###########             ",
"####   ####           ##     ##         ###########             ",
"     O#        ####################         ##       ##         ",
"     O#        ####################         ##       ##         ",
"     O#        ###  ##    ###    ##         ##       ##         ",
"     O#        ###  ##    ###    ##         ##       ##         ",
"     O#        #O                           ##       ##         ",
"     O#        #O                           ##       ##         ",
"###############     ##       #########O          O#########     ",
"###############     ##       #########O          O#########     ",
"##   O#    #####O   ##       #########O          O#########     ",
"################################################################",
"################################################################"
};
