/* XPM */
static char *result[] = {
/* columns rows colors chars-per-pixel */
"64 64 21 1 ",
"  c #211919",
". c #523A2A",
"X c #525B37",
"o c #734A29",
"O c #537C44",
"+ c #945B28",
"@ c #896B3B",
"# c #8A6B3E",
"$ c #9F6B31",
"% c #9A733B",
"& c #AA7B3A",
"* c #A48345",
"= c #A58345",
"- c #B58B44",
"; c #B68C44",
": c #BF9B4E",
"> c #C09B4D",
", c #C19C4D",
"< c #CBAC57",
"1 c #D5BB60",
"2 c #EADB74",
/* pixels */
"++,,21,,,,,+++++&,++,,22,,,12,,,,22,,,12,,..++,,+&,,,,,,,,,,,,,,",
"++,,21,,,,,+++++&,++,,22,,,12,,,,22,,,12,,..++,,+&,,,,,,,,,,,,,,",
"+++++++,,,,2222.o+,,,,++2221,,,,,,,,,,,,22,,,,,,,,,++++,,,,,,2++",
"+++++++,,,,2222.o+,,,,++2221,,,,,,,,,,,,22,,,,,,,,,++++,,,,,,2++",
"++,,,&+,,22,,22.o+++++++,,,,,,,,,,,,,,,,,,,,,,,,,&+++++,,22,,,++",
"&&,,,>:1111==11@*:&&&&&&,,,,,111111,,,,,,,@@,,,,,;&&&&&,,11,,,&&",
",,,,,1222,,##,,,12,,,,,,,,,,,222222,,,,,,,..,,,,,,,,,,,,,,,,,,,,",
"++,,222,,,,##,,,,,,,++,,+++&,2222,,++,&+++..,,,,,,,,,22,,,,+++,,",
"++,,222,,,,##,,,,,,,++,,+++&,2222,,++,&+++..,,,,,,,,,22,,,,+++,,",
"++++,,,,,,,,,,,.o++++++++++&,,,++++.....+++++++++++++++++++++.++",
"++++,,,,,,,,,,,.o++++++++++&,,,++++.....+++++++++++++++++++++.++",
",,,,21,,,22,,,,.o+++++++,,,12,,,,,,,,21,,,,,,,,,,12,,22,,,,,,,,,",
",,,,21,,,22,,,,.o+++++++,,,12,,,,,,,,21,,,,,,,,,,12,,22,,,,,,,,,",
"....................    ...............................##.......",
"....................    ...............................##.......",
",,,,,,,,,,,OO,,,,,,,,,,,,,,,,,,,,,,,,21,,,,,,,,,,,,,,,,,,,,,,,,,",
"&&@@@@@@@&&XX&&@@@@@@@@@@@@%&&&&&&&@@:-&@@@@@@&&@@@@@@@@@@@@@&&&",
"++.......++..++............o+++++++..+++......++.............+++",
"22,,21,,,,,,,22.o+++++++2221,,,++,,++,122222,,,,+&,++++,,,,,,,,,",
"22,,21,,,,,,,22.o+++++++2221,,,++,,++,122222,,,,+&,++++,,,,,,,,,",
",,,,,,,,,,,,,,,.o+++++++++,,,,,+++++++&,,,,,,,,,+++++++,,,,,,,++",
",,,,,,,,,,,,,,,.o+++++++++,,,,,+++++++&,,,,,,,,,+++++++,,,,,,,++",
",,,,,1222,,##,,,12,,,,,,22,12,,,,,,+++&,,,..22,,21,,,,,,,,,+++++",
",,,,,1222,,##,,,12,,,,,,22,12,,,,,,+++&,,,..22,,21,,,,,,,,,+++++",
",,,,,,,,,,,##,,,,,,,,,,,,,,,,,,,,,,+++++++..,,,,,,,,,,,,,,,,,+++",
",,,,,,,,,,,##,,,,,,,,,,,,,,,,,,,,,,+++++++..,,,,,,,,,,,,,,,,,+++",
",,++,&+,,,,,,,,.@,,,2222,,,,,,,22,,,,,&+,,++,,++,,,,,,,,,,,22,,,",
",,++&$+,,,,,,,,.@,,,1111,,,,,,,11,,,,,&+&&++&&++,,,,,,,,,,,11,,,",
",,+++++,,,,,,,,.@,,,,,,,,,,,,,,,,,,,,,&+++++++++,,,,,,,,,,,,,,,,",
",,,,,,,22,,,,22.o+,,,,,,,,,,,,,,,22,,21,,,,,22,,,1222,,,,++++,22",
",,,,,,,22,,,,22.o+,,,,,,,,,,,,,,,22,,21,,,,,22,,,1222,,,,++++,22",
",,,,,,,,,,,,,,,.o+++++++,,,,,,,,,,,,,,,,,,,,,,,,,,,,,,,+++++++,,",
",,,,,,,,,,,,,,,.o+++++++,,,,,,,,,,,,,,,,,,,,,,,,,,,,,,,+++++++,,",
",,,,,,,,,,,++22,,,,,,,,,22,122222,,,,,,,,,##,,2221,22,,22,,22222",
",,,,,,,,,,,++22,,,,,,,,,22,122222,,,,,,,,,##,,2221,22,,22,,22222",
",,,,,,,,,,,,,,,222,,,,,,,,,,,,,,,,,,,,,,,,..,,,,,=#,,,,,,,,,,,,,",
",,,,,,,,,,,,,,,222,,,,,,,,,,,,,,,,,,,,,,,,..,,,,,=#,,,,,,,,,,,,,",
"2222222,,,,2222.o+,,,,,,,,,,,22222222,1222,,,,##,1222,,222222,..",
"2211111,,,,1111.o+&&&&&&,,,,,1111222211111,,,,##,<111,,1122111..",
"22,,,,,,,,,,,,,.o+++++++,,,,,,,,,222221,,,,,,,##,,,,,,,,,22,,2..",
",,22,&+++,,..+++++++,,,,,,,12,,222222,,,,,##2222,,,,,,,,,,,22222",
",,22,&+++,,..+++++++,,,,,,,12,,222222,,,,,##2222,,,,,,,,,,,22222",
",,22+++++,,++++,,,++,,,,,,,12,,,,,,,,,,,,,,,22,,21,22,,,,,,,,2,,",
",,22+++++,,++++,,,++,,,,,,,12,,,,,,,,,,,,,,,22,,21,22,,,,,,,,2,,",
"++,,+&,,,222222.@,22,,,,,,21,,,++,,,,,,,,,2222,,,,,,,,,2222222..",
"++,,+&,,,222222.@,22,,,,,,21,,,++,,,,,,,,,2222,,,,,,,,,2222222..",
"+++++&,,,2222,,.@,,,,,,,,,,,,22++++,,,,,22,,22,,,,,,,++,,,,22,..",
"+++++&,,,2222,,.@,,,,,,,,,,,,22++++,,,,,22,,22,,,,,,,++,,,,22,..",
"22222222222,,+++&,++222222,12222222,,,,,,,..22,,21,22222222,,,,,",
"22222222222,,+++&,++222222,12222222,,,,,,,..22,,21,22222222,,,,,",
"222222222,,,,+++++++,,22,,21,,,,,,,+++&,,,..22,,,,,222222,,,,,,,",
"22,,,12,,22,,22.@,,,,,22,,,,,,,,,,,,,,,,,,,,,,##222,,,,,,,,,,,,,",
"22,,,12,,22,,22.@,,,,,22,,,,,,,,,,,,,,,,,,,,,,##222,,,,,,,,,,,,,",
"2222222,,,,22,,.@,,,,,,,+++&,++,,,,22,,,,,,,,,##2222222++,,++,,,",
"2222222,,,,22,,.@,,,,,,,+++&,++,,,,22,,,,,,,,,##2222222++,,++,,,",
"22,,,12,,,,,,22.@,,,,,,,2221,22,,,,,,,,,,,22,,++,,,,,,,,,,,,,2,,",
"22,,,12,,,,,,22.@,,,,,,,2221,22,,,,,,,,,,,22,,++,,,,,,,,,,,,,2,,",
",,,,21,22222222.@,,,,,,,,,,,,22++,,+++&,,,22,,++22222222222,,2,,",
",,,,21,22222222.@,,,,,,,,,,,,22++,,+++&,,,22,,++22222222222,,2,,",
"2222,,,,,,,22,,222,,,,,,,,,1222,,22,,22222,,,,2221,22,,2222,,,,,",
"2222,,,,,,,22,,222,,,,,,,,,1222,,22,,22222,,,,2221,22,,2222,,,,,",
"2222,,,,,,,,,22222,,,,,,,,,,,,,22,,,,,,,,,,,,,,,21,2222,,22,,+,,",
",,,,,,,,,222222,,,22,,,,,,,,,,,,,,,,,,,,,,,,,,,,,,,,,,,,,22,,,++",
",,,,,,,,,222222,,,22,,,,,,,,,,,,,,,,,,,,,,,,,,,,,,,,,,,,,22,,,++"
};
