/* XPM */
static char *result[] = {
/* columns rows colors chars-per-pixel */
"64 64 14 1 ",
"  c black",
". c #0B3E1B",
"X c #115E28",
"o c #177D36",
"O c #366544",
"+ c #57756D",
"@ c #42A35F",
"# c #5D947B",
"$ c #62B388",
"% c #6DCA89",
"& c #78C79D",
"* c #88CFB2",
"= c #8DDAB2",
"- c #AEEADB",
/* pixels */
"         oo                                              oo     ",
"         oo                                              oo     ",
"    oooooooooooooooooooo  ooooooo%%ooooooooooooooooooooooooooooo",
"    oooooooooooooooooooo  ooooooo%%ooooooooooooooooooooooooooooo",
"oooo .o    ooooooooooo    ooooooooooooooooooooooooo  ooooooooo  ",
".... .o  ..ooooooo..oo  ..ooooooooooooooooooooooooo  oo..oo..o  ",
"     .o  ooooooooo  oo  ooooooooooooooooooooooooooo  oo  oo  o  ",
"    ooo  oooo-------oo    ooooooo--oo-$ooo------%=---%%---------",
"    ooo  oooo-------oo    ooooooo--oo-$ooo------%=---%%---------",
"         oooo-------      ooooo----%%-$ooo------%=---%%---------",
"         oooo-------      ooooo----%%-$ooo------%=---%%---------",
"           %%%%%%%%%         oo%%oooo     %%%%%%%%%%%  %%oooo%%%",
"           %%%%%%%%%         oo%%oooo     %%%%%%%%%%%  %%oooo%%%",
"oo   .ooo-----------oooo  %=----------$ooo---------------%%---oo",
"oo   .ooo-----------oooo  %=----------$ooo---------------%%---oo",
"oooo .ooo-----------oo  oo------------=%oo------ooo  ooooooooooo",
"oooo.Xooo-----------oo..$$------------&@oo------ooo..ooooooooooo",
"ooooooooo-----------oooo--------------$ooo------oooooooooooooooo",
"ooooooooo-----------oo----------------$ooo------ooo  ooooooooooo",
"ooooooooo-----------oo----------------$ooo------ooo  ooooooooooo",
"ooooooooo  %%-------oooo%%------------$ooo------%%%%%oooooooo   ",
"ooooooooo  %%-------oooo%%------------$ooo------%%%%%oooooooo   ",
"oo           %%%%%%%         %%%%%%%%%O   %%%%%%%%%%%%%%%%%     ",
"oo           %%%%%%%         %%%%%%%%%O   %%%%%%%%%%%%%%%%%     ",
"oooo%%%%%oo%%---=%--oooooo%%%---------=%%%--------------------oo",
"oooo%%%%%oo%%---=%--oooooo%%%---------=%%%--------------------oo",
"  ooooooooooo---=%--ooooooooo---------$ooo----------------------",
"  ooooooooooo---=%--ooooooooo---------$ooo------+#$-------------",
"  ooooooooooo---=%--ooooooooo---------$ooo------ .o-------------",
"  ooooooooooo---=%--ooooooooo---------$ooooooooo .ooooo---------",
"  ooooooooooo---=%--ooooooooo---------$ooooooooo .ooooo---------",
"             %%%%%--         %%%%%%%%%O         o.     %%%%%%%%%",
"             %%%%%--         %%%%%%%%%O         o.     %%%%%%%%%",
"             %%%%%%%         %%%%%%%%-$o%%--    ooooooo---------",
"             %%%%%%%         %%%%%%%%-$o%%--    ooooooo---------",
"%%%%%%%oooo%%---=%--%%%%oo%%%---------=%---------=%-----------oo",
"%%%%%%%oooo%%---=%--%%%%oo%%%---------=%---------=%-----------oo",
"ooooooooo  oo-------%%  oo%%%---------------------------------oo",
"ooooooooo  oo-------%%  @@@@@---------*$----------------------oo",
"ooooooooo  oo-------%%  %%ooo---------$o----------------------oo",
"ooooooooo  oo-------oo  ooooo---------=%  %%---------------ooooo",
"ooooooooo  oo-------oo  ooooo---------=%  %%---------------ooooo",
"ooooooo  oo  %%%%%%%    ooooooo%%%%%%%@o  ooooooo$-ooooooooooooo",
"ooooooo  oo  %%%%%%%    ooooooo%%%%%%%@o  ooooooo$-ooooooooooooo",
"       ooooooooo.     oo%%ooo             %%               ooooo",
"       ooooooooo.     oo%%ooo             %%               ooooo",
"%%%%%%%%%%%%%%%%%%%%--%%--%%%%%%%%%%%%%%%%%%%%%%%%%%%%%%%%%%% %%",
"%%%%%%%%%%%%%%%%%%%%--%%--%%%%%%%%%%%%%%%%%%%%%%%%%%%%%%%%%%% %%",
"ooooooooo  ooooooooooooooo%@ooooo  ooooo%%%%oooooooooooooooooooo",
"ooooooooo  ooooooooooooooo%@ooooo  ooooo%%%%oooooooooooooooooooo",
"ooooooooo  ooooooooooooooooooooooooooooooooooooooooooooooooooooo",
"ooooooooo  oooooooooooooooooooooo  ooooooooooooooooooooooooooooo",
"ooooooooo  oooooooooooooooooooooo  ooooooooooooooooooooooooooooo",
"ooooooooo  oooooooooooooooooooooo  ooooooooooooooooooooooooooooo",
"ooooooooo  oooooooooooooooooooooo  ooooooooooooooooooooooooooooo",
"         oo                                   oo             o  ",
"         oo                                   oo             o  ",
"oooo%%%oooooo  ooo%%%%%%ooo@%%%%%%%%%%%%    %%ooo. oo%%oo%%%%%%%",
"oooo%%%oooooo  ooo%%%%%%ooo@%%%%%%%%%%%%    %%ooo. oo%%oo%%%%%%%",
"  oooooooooooooooooooooooo%@oooooooooooo%%ooooooo. ooooooooooooo",
"  oooooooooooooooooooooooo%@oooooooooooo%%ooooooo. ooooooooooooo",
"  oooooooooooooooooooooooooooooooooooooooo  ooooo. ooooooooooooo",
"  oooooooooooooooooooo  %%ooooooooo%%oooooooooooo. ooooooooooo  ",
"  oooooooooooooooooooo  %%ooooooooo%%oooooooooooo. ooooooooooo  "
};
