/* XPM */
static char *result[] = {
/* columns rows colors chars-per-pixel */
"64 64 9 1 ",
"  c black",
". c #1A2128",
"X c #334251",
"o c #326665",
"O c #6785A2",
"+ c #6697AC",
"@ c #66A9B6",
"# c #65BBC1",
"$ c #65CDCB",
/* pixels */
"         OO                                                     ",
"         OO                                                     ",
"     XOOOOO  OO            XOOOOOOOOOOOOOOOOOOOOOX       OOOO   ",
"     XOOOOO  OO            XOOOOOOOOOOOOOOOOOOOOOX       OOOO   ",
"OO                        OX                                    ",
"XX       XX               X.                    X.              ",
"         OO                                     OX              ",
"    OX       $$$$$$$           OO$$OO$o   $$$$$$O@$$$OO$$$$$$$$$",
"    OX       $$$$$$$           OO$$OO$o   $$$$$$O@$$$OO$$$$$$$$$",
"             $$$$$$$           $$$$OO$o   $$$$$$O@$$$OO$$$$$$$$$",
"             $$$$$$$           $$$$OO$o   $$$$$$O@$$$OO$$$$$$$$$",
"           OOOOOOOOO         OOOOOOOO     OOOOOOOOOOO  OOOOOOOOO",
"           OOOOOOOOO         OOOOOOOO     OOOOOOOOOOO  OOOOOOOOO",
"     XO  $$$$$$$$$$$OOOO  O@$$$$$$$$$OOOOO$$$$$$$$$$$$$$$OO$$$OO",
"     XO  $$$$$$$$$$$OOOO  O@$$$$$$$$$OOOOO$$$$$$$$$$$$$$$OO$$$OO",
"         $$$$$$$$$$$OO    $$$$$$$$$$$OOOOO$$$$$$                ",
"         $$$$$$$$$$$XX  oo$$$$$$$$$$$@+OOO$$$$$$                ",
"         $$$$$$$$$$$    $$$$$$$$$$$$$$@OOO$$$$$$                ",
"         $$$$$$$$$$$  $$$$$$$$$$$$$$$$@O  $$$$$$OX     OO       ",
"         $$$$$$$$$$$  $$$$$$$$$$$$$$$$@O  $$$$$$OX     OO       ",
"           OO$$$$$$$    OO$$$$$$$$$$$$o OO$$$$$$OOOOO           ",
"           OO$$$$$$$    OO$$$$$$$$$$$$o OO$$$$$$OOOOO           ",
"             OOOOOOO         OOOOOOOOOX   OOOOOOOOOOOOOOOOO     ",
"             OOOOOOO         OOOOOOOOOX   OOOOOOOOOOOOOOOOO     ",
"OOOOOOOOOOOOO$$$@O$$OOOOOOOOO$$$$$$$$$@OOO$$$$$$$$$$$$$$$$$$$$OO",
"OOOOOOOOOOOOO$$$@O$$OOOOOOOOO$$$$$$$$$@OOO$$$$$$$$$$$$$$$$$$$$OO",
"             $$$@O$$OOOOOOOX $$$$$$$$$@OOO$$$$$$$$$$$$$$$$$$$$$$",
"             $$$@O$$OOXXXXOX $$$$$$$$$@OOO$$$$$$ooo$$$$$$$$$$$$$",
"             $$$@O$$OO    OX $$$$$$$$$@OOO$$$$$$   $$$$$$$$$$$$$",
"             $$$@O$$         $$$$$$$$$o                $$$$$$$$$",
"             $$$@O$$         $$$$$$$$$o                $$$$$$$$$",
"             OOOOO$$         OOOOOOOOOX                OOOOOOOOO",
"             OOOOO$$         OOOOOOOOOX                OOOOOOOOO",
"             OOOOOOO         OOOOOOOO$@OOO$$     XOOOOO$$$$$$$$$",
"             OOOOOOO         OOOOOOOO$@OOO$$     XOOOOO$$$$$$$$$",
"OOOOOOOOO  OO$$OOO$$OOOOOOOOO$$$$$$$$$@O$$$$$$$$$@O$$$$$$$$$$$OO",
"OOOOOOOOO  OO$$OOO$$OOOOOOOOO$$$$$$$$$@O$$$$$$$$$@O$$$$$$$$$$$OO",
"OOOOOOOOO  OO$$$$$$$OO  OOOOO$$$$$$$$$$$$$$$$$$$$$$$$$$$$$$$$$OO",
"OOOOOOOOO  OO$$$$$$$OO  OOOOO$$$$$$$$$#@$$$$$$$$$$$$$$$$$$$$$$OO",
"OOOOOOOOO  OO$$$$$$$OO  OOOOO$$$$$$$$$@O$$$$$$$$$$$$$$$$$$$$$$OO",
"OOOOOOO    OO$$$$$$$OO  OOOOO$$$$$$$$$@O  OO$$$$$$$$$$$$$$$OOOOO",
"OOOOOOO    OO$$$$$$$OO  OOOOO$$$$$$$$$@O  OO$$$$$$$$$$$$$$$OOOOO",
"  OOOX       OOOOOOO      OX OOOOOOOOOOO  OOOOOOOOOOOOO       OO",
"  OOOX       OOOOOOO      OX OOOOOOOOOOO  OOOOOOOOOOOOO       OO",
"       OOOOOO  OX     OOOOOOO             OO               OOOOO",
"       OOOOOO  OX     OOOOOOO             OO               OOOOO",
"OOOOOOOOOOOOOOOOOOOOOOOOOOOOOOOOOOOOOOOOOOOOOOOOOOOOOOOOOOOOO OO",
"OOOOOOOOOOOOOOOOOOOOOOOOOOOOOOOOOOOOOOOOOOOOOOOOOOOOOOOOOOOOO OO",
"OOOOOOOOO  OOOOOOOOOOOOOOOOOOOOOO  OOOOOOOOOOOOOOOOOOOOOOOO  OOO",
"OOOOOOOOO  OOOOOOOOOOOOOOOOOOOOOO  OOOOOOOOOOOOOOOOOOOOOOOO  OOO",
"OOOOOX OO  OOOOOOOOOOOOOOOOOOOOOO  OOOOOOOOOOOOOOOOOOOOOOOOOOOOO",
"  OOOOOOO  OOOOOOOOOOOOOOOOOOOOOO  OOOOOOOOOOOOOOOOOOOOOOOOOOOOO",
"  OOOOOOO  OOOOOOOOOOOOOOOOOOOOOO  OOOOOOOOOOOOOOOOOOOOOOOOOOOOO",
"  OO       OOOOOOOOOOOOOOOOOOOOOO  OOOOOOOOOOOOOOOOOOOOOOOO   OO",
"  OO       OOOOOOOOOOOOOOOOOOOOOO  OOOOOOOOOOOOOOOOOOOOOOOO   OO",
"                                                             O  ",
"                                                             O  ",
"OOOOOOOOOOOOO  OOOOOOOOOOOOOOOOOOOOOOOOO    OOOOOX OOOOOOOOOOOOO",
"OOOOOOOOOOOOO  OOOOOOOOOOOOOOOOOOOOOOOOO    OOOOOX OOOOOOOOOOOOO",
"  OOOX OO  OOOOOOOOOOOOOOOOOOOOOOOOOOOOOOOOOOOOOOX OOOOOOOOOOO  ",
"  OOOX OO  OOOOOOOOOOOOOOOOOOOOOOOOOOOOOOOOOOOOOOX OOOOOOOOOOO  ",
"     XO  OO  OOOOOOOOO  OOOOOOOOOOOOOOOOOO  OOOOOX OOOO      OOO",
"         OOOOOOOOOOOOO  OOOOO  OOOOOOOOOOOOOOOOOOX OOOO  OO     ",
"         OOOOOOOOOOOOO  OOOOO  OOOOOOOOOOOOOOOOOOX OOOO  OO     "
};
