/* XPM */
static char *result[] = {
/* columns rows colors chars-per-pixel */
"64 64 13 1 ",
"  c #300030",
". c #3C0A42",
"X c #481454",
"o c #541E66",
"O c #602878",
"+ c #AC5C4C",
"@ c #94785C",
"# c #F89020",
"$ c #A0826E",
"% c #F8C054",
"& c #AC8C80",
"* c #D2BE84",
"= c #F8F088",
/* pixels */
"         OO                                                     ",
"         OO                                                     ",
"    OOOOOOOOOOOOX OOOO     XOOOOOOOOOOOOOOOOOOOOOX     OOOOOOO  ",
"    OOOOOOOOOOOOX OOOO     XOOOOOOOOOOOOOOOOOOOOOX     OOOOOOO  ",
"OO   XO                   OOOOOOOOO     OO  OOOOOX           O  ",
"XX   .X  XX             XXOoXXXOOXX  XXXXX  XXOOOoX          X  ",
"         OO             OOOX   OO    OOO      OOOOO             ",
"    OOO  OO  =======      OOO  OO==OO=&OOO======O&===OO=========",
"    OOO  OO  =======      OOO  OO==OO=&OOO======O&===OO=========",
"         OO  =======           ====OO=@ OO======O&===OO=========",
"         OO  =======           ====OO=@ OO======O&===OO=========",
"           OOOOOOOOO         OOOOOOOO     OOOOOOOOOOO  OOOOOOOOO",
"           OOOOOOOOO         OOOOOOOO     OOOOOOOOOOO  OOOOOOOOO",
"OO   XO  ===========OOOO  O&==========&OOO===============OO===OO",
"OO   XO  ===========OOOO  O&==========&OOO===============OO===OO",
"         ===========OO  OO============&OOO====== XO    OOOOOOO  ",
"         ===========XX  &&============&OOO======XXX    XXXXXXX  ",
"         ===========    ==============&OOO======OX              ",
"    OX OO===========  ================&OOO======OX     OO  OO   ",
"    OX OO===========  ================&OOO======OX     OO  OO   ",
"    OX     OO=======OO  OO============@ OO======O&=OO  OOOOOO   ",
"    OX     OO=======OO  OO============@ OO======O&=OO  OOOOOO   ",
"             OOOOOOO         ==OOOO===@   =======&O======OO     ",
"             OOOOOOO         ==OOOO===@   =======&O======OO     ",
"OOOOOOOOOOOOO=======OOOOOOOOO=========&OOO====================OO",
"OOOOOOOOOOOOO=======OOOOOOOOO=========&OOO====================OO",
"         OOOO===&O==OOOOOOOOO=========&OOO======================",
"  XXXXXXXOOOO===&O==OOOOXXOOO=========&OOO======@$&=============",
"  OOOOOOOOOOO===&O==OOOO  OOO=========&OOO====== XO=============",
"     XO    OO===&O==OO  OOOOO=========&OOOOO  OO       =========",
"     XO    OO===&O==OO  OOOOO=========&OOOOO  OO       =========",
"             OOO&===         OOOO==OOOX                ====OO===",
"             OOO&===         OOOO==OOOX                ====OO===",
"             =======         =========&OOO==    OOOOOOO=========",
"             =======         =========&OOO==    OOOOOOO=========",
"OO##=&OOO  OO=======####OO###=========%#=========%#===========OO",
"OO##=&OOO  OO=======####OO###=========%#=========%#===========OO",
"OOOOOOOOO  OO=======##  OOOOO=================================OO",
"OOOOOOOOO  OO=======++  OOOOO=========*&======================OO",
"OOOOOOOOO  OO=======OO  OOOOO=========&O======================OO",
"OOOOOOO    OO=======OO  OOOOO=========&O  ##===============OOOOO",
"OOOOOOO    OO=======OO  OOOOO=========&O  ##===============OOOOO",
"  OOOOO      #######    OOOX OO#######+O  OOOOOOO&=OOOOOOOOOOOOO",
"  OOOOO      #######    OOOX OO#######+O  OOOOOOO&=OOOOOOOOOOOOO",
"       OOOOOO  OX     OO##OOO             ##               OOOOO",
"       OOOOOO  OX     OO##OOO             ##               OOOOO",
"OOOOO+###OO#########=======%#########################======## ##",
"OOOOO+###OO#########=======%#########################======## ##",
"OOOOOOOOO  OOOOOOOOOOOOOOOOOOOOOO  OOOOOOO##OOOOOOOOOOOOOOO  OOO",
"OOOOOOOOO  OOOOOOOOOOOOOOOOOOOOOO  OOOOOOO##OOOOOOOOOOOOOOO  OOO",
"OOOOOOOOO  OOOOOOOOOOOOOOOOOOOOOO  OOOOOOOOOOOOOOOOOOOOOOOOOOOOO",
"OOOOOOOOO  OOOOOOOOOOOOOOOOOOOOOO  OOOOOOOOOOOOOOOOOOOOOOOOOOOOO",
"OOOOOOOOO  OOOOOOOOOOOOOOOOOOOOOO  OOOOOOOOOOOOOOOOOOOOOOOOOOOOO",
"  OO   OO  OOOOOOOOOOOOOOOOOOOOOO  OOOOOOOOOOOOOOOOOOOOOOOOOO OO",
"  OO   OO  OOOOOOOOOOOOOOOOOOOOOO  OOOOOOOOOOOOOOOOOOOOOOOOOO OO",
"         OO                                                  O  ",
"         OO                                                  O  ",
"OOOO#+OOOOOOO  OOO######OOO+############    ##OOOX OO##OO#####==",
"OOOO#+OOOOOOO  OOO######OOO+############    ##OOOX OO##OO#####==",
"  OOOOOOOOOOOOOOOOOOOOOOOO#+OOOOOOOOOOOOOOOOOOOOOX OOOOOOOOOOO  ",
"  OOOOOOOOOOOOOOOOOOOOOOOO#+OOOOOOOOOOOOOOOOOOOOOX OOOOOOOOOOO  ",
"    OOOOOOOOOOOOOOOOOO  OOOOOOOOOOOOOOOOOO  OOOOOX OOOOOOOOOOOOO",
"    OOOOOOOOOOOOOOOOOO  OOOOOOOOOOOOOOOOOOOOOOOOOX OOOO  OO  O  ",
"    OOOOOOOOOOOOOOOOOO  OOOOOOOOOOOOOOOOOOOOOOOOOX OOOO  OO  O  "
};
