/* XPM */
static char *result[] = {
/* columns rows colors chars-per-pixel */
"64 64 8 1 ",
"  c black",
". c #451B11",
"X c #711E34",
"o c #7D2A2B",
"O c #8A3622",
"+ c #B63945",
"@ c #E23D69",
"# c gray71",
/* pixels */
"@@OO@@@@@@@OO@@O+@@@@@@@OO@@@@@@@OO@@@@@@@OO@@@@@@@OO@@@@@@@@@@@",
"@@OO@@@@@@@OO@@O+@@@@@@@OO@@@@@@@OO@@@@@@@OO@@@@@@@OO@@@@@@@@@@@",
"OO@@OOO@@OOOOOOOOO  @@  OOOOO@@OOOOOOO+@  OOOO  @X OOOOOO@@OOO  ",
"OO@@OOO@@OOOOOOOOO  @@  OOOOO@@OOOOOOO+@  OOOO  @X OOOOOO@@OOO  ",
"@@@@@+OOOOOOOOOOOOOOOOOOOOOOOOOOOOOOOOOOOOOOOOOOOOOOOOOOOOOOOO@@",
"@@@@+o.......................................................O@@",
"@@@@O.                                                       O@@",
"@@OOOOOOOOOOOOOOOOOOOOOOOOOOOOOOOOOOOOOOOOOOOOOOOOOOOOOOOOO  O@@",
"@@OOOOOOOOOOOOOOOOOOOOOOOOOOOOOOOOOOOOOOOOOOOOOOOOOOOOOOOOO  O@@",
"OOOOOOOOO         OOOOOOOO           OOOOOOO           OOOO  OOO",
"OOOOOOOOO         OOOOOOOO           OOOOOOO           OOOO  OOO",
"@@OOOOOOOOOOOOOOOOOOOOOOOO .OOOOOOOOOOOOOOOOOOOOOOOOOOOOOOO  O@@",
"@@OOOOOOOOOOOOOOOOOOOOOOOO .OOOOOOOOOOOOOOOOOOOOOOOOOOOOOOO  O@@",
"OOOOOOOOOOOOOOOOOOOOOOOOOO .OOOOOOOOOOOOOOOO  OOOOOOOOOOOOO  OOO",
"OOOOOOOOOOOOOOOOOOOOOOOOOO .OOOOOOOOOOOOOOOO  OOOOOOOOOOOOO  OOO",
"@@OOOOOOOOOOOOOOOOOOOOOOOO .OOOOOOOOOOOOOOOO  OOOOOOOOOOOOO  O@@",
"++OOOOOOOOOOOOOOOOOOOOOOOO .OOOOOOOOOOOOOOOO  OOOOOOOOOOOOO  O++",
"OOOOOOOOOOOOOOOOOOOOOOOOOO .OOOOOOOOOOOOOOOO  OOOOOOOOOOOOO  OOO",
"@@@@OOOOOOOOOOOOOOOOOOOOOO .OOOOOOOOOOOOOOOO  OOOOOOOOOOOOO  O@@",
"@@@@OOOOOOOOOOOOOOOOOOOOOO .OOOOOOOOOOOOOOOO  OOOOOOOOOOOOO  O@@",
"OOOOOOOOOOOOOOOOOOOOOOOOOO .OOOOOOOOOOOOOOOO  OOOOOOOOOOOOO  OOO",
"OOOOOOOOOOOOOOOOOOOOOOOOOO .OOOOOOOOOOOOOOOO  OOOOOOOOOOOOO  OOO",
"@@@@OOOOOOOOOOOOOOOOOOOOOO .OOOOOOOOOOOOOOOO  OOOOOOOOOOOOO  O@@",
"@@@@OOOOOOOOOOOOOOOOOOOOOO .OOOOOOOOOOOOOOOO  OOOOOOOOOOOOO  O@@",
"@@OOOOOOOOOOOOOOOOOOOOOOOO .OOOOOOOOOOOOOOOO  OOOOOOOOOOOOO  O@@",
"@@OOOOOOOOOOOOOOOOOOOOOOOO .OOOOOOOOOOOOOOOO  OOOOOOOOOOOOO  O@@",
"@@@@OOOOOOOOOOOOOOOOOOOOOO .OOOOOOOOOOOOOOOO  OOOOOOOOOOOOO  O@@",
"@@++OOOOOOOOOOOOOOOOOOOOOO .OOOOOOOOOOOOOOOO  OOOOOOOOOOOOO  O@@",
"@@OOOOOOOOOOOOOOOOOOOOOOOO .OOOOOOOOOOOOOOOO  OOOOOOOOOOOOO  O@@",
"OOOOOOOOOOOOOOOOOOOOOOOOOO .OOOOOOOOOOOOOOOOOOOOOOOOOOOOOOO  @  ",
"OOOOOOOOOOOOOOOOOOOOOOOOOO .OOOOOOOOOOOOOOOOOOOOOOOOOOOOOOO  @  ",
"@@OOOOOOOOOOOOOOOOOOOOOOOO .OOOOOOOOOOOOOOOO  OOOOOOOOOOOOO  O@@",
"@@OOOOOOOOOOOOOOOOOOOOOOOO .OOOOOOOOOOOOOOOO  OOOOOOOOOOOOO  O@@",
"OOOOOOOOOOOOOOOOOOOOOOOOOO .OOOOOOOOOOOOOOOO  OOOOOOOOOOOOO  @OO",
"OOOOOOOOOOOOOOOOOOOOOOOOOO .OOOOOOOOOOOOOOOO  OOOOOOOOOOOOO  @OO",
"@@@@OOOOOOOOOOOOOOOOOOOOOO .OOOOOOOOOOOOOOOO  OOOOOOOOOOOOO  @@@",
"@@@@OOOOOOOOOOOOOOOOOOOOOO .OOOOOOOOOOOOOOOO  OOOOOOOOOOOOO  @@@",
"OOOOOOOOOOOOOOOOOOOOOOOOOO .OOOOOOOOOOOOOOOO  OOOOOOOOOOOOO  @OO",
"++++OOOOOOOOOOOOOOOOOOOOOO .OOOOOOOOOOOOOOOO  OOOOOOOOOOOOO  @++",
"@@@@OOOOOOOOOOOOOOOOOOOOOO .OOOOOOOOOOOOOOOO  OOOOOOOOOOOOO  @@@",
"@@OOOOOOOOOOOOOOOOOOOOOOOO .OOOOOOOOOOOOOOOO  OOOOOOOOOOOOO  @@@",
"@@OOOOOOOOOOOOOOOOOOOOOOOO .OOOOOOOOOOOOOOOO  OOOOOOOOOOOOO  @@@",
"@@@@OOOOOOOOOOOOOOOOOOOOOO .OOOOOOOOOOOOOOOO  OOOOOOOOOOOOO  @@@",
"@@@@OOOOOOOOOOOOOOOOOOOOOO .OOOOOOOOOOOOOOOO  OOOOOOOOOOOOO  @@@",
"@@OOOOO  OOOOOOOOOOOOOOOOO .OOOOOOOOOOOOOOOO  OOOOOOOOO##OO  @@@",
"@@OOOOO  OOOOOOOOOOOOOOOOO .OOOOOOOOOOOOOOOO  OOOOOOOOO##OO  @@@",
"OO@@OOO  OOOOOOOOOOOOOOOOO .OOOOOOOOOOOOOOOO  OOOOOOOOO##OO  @OO",
"OO@@OOO  OOOOOOOOOOOOOOOOO .OOOOOOOOOOOOOOOO  OOOOOOOOO##OO  @OO",
"@@OOOOO  OOOOOOOOOOOOOOOOO .OOOOOOOOOOOOOOOO  OOOOOOOOO##OO  @@@",
"@@OOOOO  OOOOOOOOOOOOOOOOO .OOOOOOOOOOOOOOOO  OOOOOOOOO##OO  @@@",
"OOOOOOO  OOOOOOOOOOOOOOOOO .OOOOOOOOOOOOOOOO  OOOOOOOOOOOOO  @OO",
"@@OOOOO  OOOOOOOOOOOOOOOOO .OOOOOOOOOOOOOOOO  OOOOOOOOOOOOO  @@@",
"@@OOOOO  OOOOOOOOOOOOOOOOO .OOOOOOOOOOOOOOOO  OOOOOOOOOOOOO  @@@",
"OOOOOOO  OOOOOOOOOOOOOOOOO .OOOOOOOOOOOOOOOO  OOOOOOOOOOOOO  @OO",
"OOOOOOO  OOOOOOOOOOOOOOOOO .OOOOOOOOOOOOOOOO  OOOOOOOOOOOOO  @OO",
"@@@@OOO  OOOOOOOOOOOOOOOOO .OOOOOOOOOOOOOOOO  OOOOOOOOOOOOO  @@@",
"@@@@OOO  OOOOOOOOOOOOOOOOO .OOOOOOOOOOOOOOOO  OOOOOOOOOOOOO  @@@",
"OOOOOOO  OOOOOOOOOOOOOOOOO .OOOOOOOOOOOOOOOO  OOOOOOOOOOOOO  @OO",
"OOOOOOO  OOOOOOOOOOOOOOOOO .OOOOOOOOOOOOOOOO  OOOOOOOOOOOOO  @OO",
"@@@@OOO  OOOOOOOOOOOOOOOOO .OOOOOOOOOOOOOOOO  OOOOOOOOOOOOO  O@@",
"@@@@OOO  OOOOOOOOOOOOOOOOO .OOOOOOOOOOOOOOOO  OOOOOOOOOOOOO  O@@",
"OOOOOOO  OOOOOOOOOOOOOOOOO .OOOOOOOOOOOOOOOO  OOOOOOOOOOOOO  @OO",
"@@@@OOO  OOOOOOOOOOOOOOOOO .OOOOOOOOOOOOOOOO  OOOOOOOOOOOOO  O@@",
"@@@@OOO  OOOOOOOOOOOOOOOOO .OOOOOOOOOOOOOOOO  OOOOOOOOOOOOO  O@@"
};
