/* XPM */
static char *result[] = {
/* columns rows colors chars-per-pixel */
"64 64 42 1 ",
"  c #3E2137",
". c #6C423F",
"X c #647D34",
"o c #7F703E",
"O c #7F743C",
"+ c #442A42",
"@ c #4B334D",
"# c #513C58",
"$ c #7A3A4F",
"% c #7B504D",
"& c #795455",
"* c #584563",
"= c #655872",
"- c #9D303B",
"; c #915A38",
": c #8A5E5A",
"> c #9A6348",
", c #AC6F44",
"< c #BF7B41",
"1 c #A97A5E",
"2 c #866668",
"3 c #977070",
"4 c #93797B",
"5 c #B87F62",
"6 c #A48837",
"7 c #E4943A",
"8 c #D2AD3D",
"9 c #9D8C58",
"0 c #AD9544",
"q c #A58577",
"w c #B89174",
"e c #DD975B",
"r c #D79B7D",
"t c #C0C741",
"y c #726A88",
"u c #787390",
"i c #7EC4C1",
"p c #8C9384",
"a c #A28788",
"s c #B19595",
"d c #8C8FAE",
"f c #F5EDBA",
/* pixels */
"  >>><77777>>>>>>>>>dd       dd>>77>>>>>         .>>>rr>>>>dd>**",
"  >>><77777>>>>>>>>>dd       dd>>77>>>>>         .>>>rr>>>>dd>**",
"**>>>>>>>>>>>>>>>>>>dd       dd>>>>>>>>>         .>>>>>>>>>dd   ",
"**>>>>>>>>>>>>>>>>>>dd       dd>>>>>>>>>         .>>>>>>>>>dd   ",
">>>>rsdddddddddddddddddddddddddddddddddddddddddddddddddiiddiiddd",
">>>>5ad========du=========4qw444444444qwww44dd=======ddpp44pp444",
">>>>>4d        d=         ><7>>>>>>>>><777>>dd       dd>>>>>>>>>",
">>>>>4d        d=         7<>77>>7777>>>>>>>dd** @*  **>>>>>>>>>",
">>>>>4d        d=         7<>77>>7777>>>>>>>dd** @*  **>>>>>>>>>",
"dd>>777>>77  *****  dd77ttt87dd         77>>>>77>&*********rr>>>",
"dd>>777>>77  *****  dd77ttt87dd         77>>>>77>&*********rr>>>",
"dd>>>>>>>>>         rr7777>>>dd         >>>>>>>>>&*******  >>>>>",
"dd>>>>>>>>>         rr7777>>>dd         >>>>>>>>>&*******  >>>>>",
"ddXX>oX>>XX**       rr>>>>>>>dd**  ***yd>>XXXX>>>.         dd***",
"ddXX>oX>>XX**       rr>>>>>>>dd**  ***yd>>XXXX>>>.         dd***",
"     :r>>>>>>>>d4>>>>>>>77         rr>>>>>>>dd     **dd>>rr77>>>",
"     %5>>>><<>>d4><<>>>><<         rr>>>>>>>dd     @@dd>>ee<<>>>",
"     .>>>>>77>>d4>77>>>>>>         rr>>>>>>>dd       dd>>77>>>>>",
"dddddddddddddddddddddddddddddddddddddddddddddddddddddddddddddddd",
"dddddddddddddddddddddddddddddddddddddddddddddddddddddddddddddddd",
"dd         >>>>>>>>>dd77>>t87dd>>>>77r5>                   dd   ",
"dd         >>>>>>>>>dd77>>t87dd>>>>77r5>                   dd   ",
"dd         >>>>>>>>>dd>>>>7<>dd7777777<>                   >>   ",
"dd         >>>>>>>>>dd>>>>7<>dd7777777<>                   >>   ",
"77777wd>>77>>77dsr77rrtt77******************dd7778trrdd>>>>>>>77",
"77777wd>>77>>77dsr77rrtt77******************dd7778trrdd>>>>>>>77",
"ttrr>4d>>>>>>>>d4>ttrr>>rr*@ ****  *******  dd77>>>rrdd>>>>>>>>>",
"0055>4d>>>>>>>>d4>0099>>55*#@@@**@@**@@@@@  dd66>>>99ddooooooo&&",
">>>>>4d>>>>>>>>d4>>>XX>>>>***  ******       ddXX>>>XXddXXXXXXX**",
"dd         77tt>>>>>dd77>>>>>dd*********77>>rrrrr:       **77777",
"dd         77tt>>>>>dd77>>>>>dd*********77>>rrrrr:       **77777",
"dd         77>>><7>>dd>>>>>>>dd****** @*7777rrrrr:     **  77>>>",
"dd         77>>><7>>dd>>>>>>>dd****** @*7777rrrrr:     **  77>>>",
"dddddddddddddddddddddddddddddiiddddddddddddddddddddddddddddddddd",
"dddddddddddddddddddddddddddddiiddddddddddddddddddddddddddddddddd",
"77>>>4d      --d4>>>>>>>>>><77777>>         dd77>>>>>dd         ",
"77>>>4d      --d4>>>>>>>>>><77777>>         dd77>>>>>dd         ",
">>77>4d        d4>>>>>>>>>><777>>rr--       dd>>>>>>>dd         ",
"4477>1w;;;;@@@@y2>&&<<55<<><7ww&&33$$ +@;;..ww>>>,<<<ww;;;;     ",
"dd77><77777*****&>**77rr77><7dd****** @*77>>77>>><777777777     ",
"dd>>>>>>>77  ***@ **777777>>>dd       @*77>>>>>>777>>>>77>>     ",
"dd>>>>>>>77  ***@ **777777>>>dd       @*77>>>>>>777>>>>77>>     ",
"dd77>>>>>>>**** @***>>-->>>>>dd         XXXXXX>>>.              ",
"dd77>>>>>>>**** @***>>-->>>>>dd         XXXXXX>>>.              ",
"     :r7777rrrrdy*********       **ttrrrrr77dd*******dd         ",
"     :r7777rrrrdy*********       **ttrrrrr77dd*******dd         ",
"  ** .>>>>>>>>>dy*****  **         77tttrr77dd** @*  dd         ",
"  ** .>>>>>>>>>dy*****  **         77tttrr77dd** @*  dd         ",
"ddddddddddddddddddddddddddddddddddddddddffddffffdsrddddddddddddd",
"ddddddddddddddddddddddddddddddddddddddddffddffffdsrddddddddddddd",
"dd>>7<>7777*****@   >>>>rr>>>dd****** @*rrrrrrtt777>>>>>>77     ",
"dd>>>>>rr77*********>>77>>>>>dd*********tt>>>>rr><7>>>>>>>>     ",
"dd>>>>>rr77*********>>77>>>>>dd*********tt>>>>rr><7>>>>>>>>     ",
"*****yd********dw7rr777777><777tt77>> @*****dd*******dd*********",
"*****yd********dw7rr777777><777tt77>> @*****dd*******dd*********",
"     =d        re7>>77>>>>7<>>>>>77>>       dd       dd    *****",
"     =d        re7>>77>>>>7<>>>>>77>>       dd       dd    *****",
"     =d        d4>>>>>>>>>Xo>      >> @*    dd       dd*******>>",
"     =d        d4>>>>>>>>>Xo>      >> @*    dd       dd*******>>",
"dd777ertt77rrtt>>>>>dd       dd>>rrrr7<>         ;7ttrrrr77     ",
"dd777ertt77rrtt>>>>>dd       dd>>rrrr7<>         ;7ttrrrr77     ",
"dd>>>>>>>>>tt77>>>>>dd       dd77rr777<>         Ottt77tt>>**   ",
"dddddddddddddddddddddddddddddddddddddddddddddddddddddddddddddddd",
"dddddddddddddddddddddddddddddddddddddddddddddddddddddddddddddddd"
};
