/* XPM */
static char *result[] = {
/* columns rows colors chars-per-pixel */
"64 64 229 2 ",
"   c #060F1A",
".  c #05111E",
"X  c #0B131D",
"o  c #14141C",
"O  c #181618",
"+  c #1A121C",
"@  c #291617",
"#  c #251A1D",
"$  c #2A191D",
"%  c #331818",
"&  c #391D1D",
"*  c #041522",
"=  c #091621",
"-  c #041B24",
";  c #0B1A24",
":  c #071A2A",
">  c #041C2A",
",  c #141A24",
"<  c #161A25",
"1  c #221C26",
"2  c #2D1C22",
"3  c #381C21",
"4  c #07222D",
"5  c #1B2224",
"6  c #19232B",
"7  c #022738",
"8  c #282429",
"9  c #392726",
"0  c #232633",
"q  c #451A16",
"w  c #57241D",
"e  c #481C20",
"r  c #43272A",
"t  c #5C2727",
"y  c #552B2D",
"u  c #57312E",
"i  c #512F35",
"p  c #5A3737",
"a  c #6A2827",
"s  c #723127",
"d  c #693636",
"f  c #7A3836",
"g  c #4D423C",
"h  c #74413C",
"j  c #093747",
"k  c #163E4A",
"l  c #094353",
"z  c #0D4A5C",
"x  c #14495A",
"c  c #104F62",
"v  c #0C5669",
"b  c #185C6C",
"n  c #0F626F",
"m  c #0C6679",
"M  c #166576",
"N  c #136678",
"B  c #156B7C",
"V  c #1B6C7C",
"C  c #1A717F",
"Z  c #226E7C",
"A  c #23717D",
"S  c #2D767B",
"D  c #387C78",
"F  c #4F4F57",
"G  c #6C4140",
"H  c #784A49",
"J  c #75524C",
"K  c #715B5E",
"L  c #765F61",
"P  c #776568",
"I  c #7A7075",
"U  c #83251F",
"Y  c #92312B",
"T  c #963B36",
"R  c #B3332D",
"E  c #B83B34",
"W  c #C8372A",
"Q  c #D73B2B",
"!  c #CB3C33",
"~  c #87443A",
"^  c #9C433A",
"/  c #AB473B",
"(  c #B8443C",
")  c #CA4235",
"_  c #C1443B",
"`  c #CA463B",
"'  c #CC4A3D",
"]  c #D3443C",
"[  c #D34D3D",
"{  c #D84838",
"}  c #DC553E",
"|  c #E44C38",
" . c #DA633A",
".. c #F0653D",
"X. c #864443",
"o. c #984844",
"O. c #8A514D",
"+. c #96514B",
"@. c #955754",
"#. c #A74B45",
"$. c #B94B44",
"%. c #A75347",
"&. c #B85448",
"*. c #BB554A",
"=. c #A85753",
"-. c #B45C56",
";. c #AA6152",
":. c #B6685A",
">. c #89726E",
",. c #B46865",
"<. c #C64E47",
"1. c #CD4C41",
"2. c #D24E44",
"3. c #D94F49",
"4. c #C35343",
"5. c #CD5345",
"6. c #CF5844",
"7. c #C35349",
"8. c #CC544A",
"9. c #CD5A4D",
"0. c #D45345",
"q. c #DA5245",
"w. c #D25A46",
"e. c #D95B45",
"r. c #D2544C",
"t. c #DA534A",
"y. c #D35B4D",
"u. c #DC5C4C",
"i. c #C55B54",
"p. c #CE5D52",
"a. c #D75750",
"s. c #D45D52",
"d. c #DB5E53",
"f. c #E35343",
"g. c #E25846",
"h. c #E55D54",
"j. c #D9624A",
"k. c #DD614D",
"l. c #C36356",
"z. c #CC6254",
"x. c #C6655D",
"c. c #CC6359",
"v. c #CB695C",
"b. c #D46354",
"n. c #DA6355",
"m. c #D56B55",
"M. c #DA6855",
"N. c #D4645A",
"B. c #DA6559",
"V. c #D46B5C",
"C. c #DB6C5D",
"Z. c #CE705B",
"A. c #DD725C",
"S. c #DA775D",
"D. c #E6634A",
"F. c #E76649",
"G. c #EC6A4D",
"H. c #F06942",
"J. c #E8714C",
"K. c #F67746",
"L. c #E16555",
"P. c #E36B55",
"I. c #E76956",
"U. c #E36B5B",
"Y. c #EB6A5A",
"T. c #E97957",
"R. c #E3745D",
"E. c #F37953",
"W. c #C56D62",
"Q. c #CD6C63",
"!. c #D56661",
"~. c #D46C62",
"^. c #DB6E62",
"/. c #CA7667",
"(. c #D27364",
"). c #DB7464",
"_. c #D77A63",
"`. c #D4756A",
"'. c #DA746B",
"]. c #D37A6D",
"[. c #DB7B6D",
"{. c #CD7D75",
"}. c #D47C72",
"|. c #DC7B73",
" X c #E47766",
".X c #EE7763",
"XX c #E27D71",
"oX c #3C817C",
"OX c #4E8A7F",
"+X c #998974",
"@X c #A39076",
"#X c #EB885C",
"$X c #F28659",
"%X c #DA816D",
"&X c #CE8477",
"*X c #D58275",
"=X c #DB8174",
"-X c #D2837A",
";X c #D7887B",
":X c #E88567",
">X c #F48A60",
",X c #E79366",
"<X c #EE9B6D",
"1X c #F29268",
"2X c #E99875",
"3X c #F39B77",
"4X c #EBA77B",
"5X c #F4A57C",
"6X c #156D82",
"7X c #1C6D81",
"8X c #177285",
"9X c #1C7182",
"0X c #216F81",
"qX c #237283",
"wX c #2B7481",
"eX c #317A83",
"rX c #3B8383",
"tX c #458682",
"yX c #4D8B84",
"uX c #588E88",
"iX c #589285",
"pX c #629989",
"aX c #649F91",
"sX c #6EA090",
"dX c #75A797",
"fX c #A89A82",
"gX c #D48B82",
"hX c #D49087",
"jX c #F0A785",
/* pixels */
"+ + jXjX>X$XK.dXdXdXdXOXpX>X1X<X5X5X. - aXaXOXOXyXiXsXpXiXiXiX2X2XH.H.F.G. .J.#X>X>X3X3XE.E.5X4XG.T.,XJ.E.E.$XK.K.>X#X<X<X4 ,X,X",
"+ < jXjX$X$XK.fXdXdXdXOXOX$X>X<X4X5X. . aXaXOXOXiXiXsXpXiXiXuX2X<XH.H.H.G.} J.$X>X$X3XjXE.T.5X5XH.T.,XE.E.$XE.K.K.1X1X<X<X4 ,X,X",
"O o o o . X X . > .     . , , , 5 O X X X X . . o = X X X o o X = X   @ @ = - > > > > > : : - * : * * - = 4 4 = = X - ; ; 0 = = ",
"o o o o . . X . * .       < : , ; O X X X X . . X X = X X o X X X . X @ @ = ; 4 : : : : : : * * * - . = = 4 6 : ; X X ; ; 8 X = ",
"#X#X,X#X<X5X4X4X4X..H.H.H.3X<X2X2X2XE.K.%X:X2X2XE.E. .P.).J.J.R.#X:.:.J.J.J.T.$X2X2X3X3X$XE.#XJ..XE. Xr i 2X<X,X<X4X4X#X#X4X5X<X",
";./ @X@XfX@X+X2X2X$XE.:X:XfX@X@X+X@X~ h ,X:X.X.XE.E.G.J.S.F.J..XT.Z.Z.F.j.%.z.J.:X:X.XE.+X>.+X+X@X&XJ.+.+.:X#X,X,X<X,XJ.G.J >X$X",
"u w OXiXsXiXtX>X#X1X<XjXjXyXiXyXyXuXo , :X>XH.H.T.J..XT.T.G.G.T.T.R.J.} } h / G.T.T.g.f.OXD OXOXOX+XG.K.J.J.J.$X#X$X$X....4 $X..",
"u s iXOXiXtXrX4X3X2X2X:X%XoXrXoXD eX3 3 Y.Y.f.f.g.D.P.j.e. X XP.L.D.F.' ' X.;._.R.R. .} OXOXD D OX>.T. XS.G.G.F.j.#X#X ...- <X<X",
"a s yXiXyXtXrX3X3X2X2X:X:XoXoXD D oX& & Y.Y.f.f.g.D.F.j.e. X Xk.P.G.G.{ { H ;._.S.S.} } tXtXD D tX+X:X XR.G.G.F.F.S.S...F.> <X<X",
"D.D.G.G.yXtXyXD D * = ;X;XJ.T.:X XR.=X=XY.R.XX%XP.M.u.9.:.%X:XD.e.^ o.m.M.M.R.S.:X[.R.R.s.d.C.A.^.P.D.4 4 h.D.U.R.J.P.#X#XL.R.R.",
"D.G.G.Y.tXtXtXrXeX* * 2X2XJ.J.XXR.P.XXXXR.R.XX%XC.M.q.9.:.XXXXu.j.o.#.b.b.M.A. X%X:XR.A.d.s.A.R.).n.F.4 4 D.D.A.A.P.J.:X:XI.R.T.",
"# $ ; ; 7 7 4 4 4 > > % $ $ $ % w w % @ O < 9 9 T ~ a t t T Y a a a u 5 5 O @ @ 9 9 6 0 o o 2 2 $ $ $ ; : # @ + O q & ~ ~ i 8 2 ",
"$ # 4 4 7 7 4 4 4 - - % % $ $ % q a % % O 5 9 9 h h a w y Y T a a a u 5 5 O O @ 9 9 6 0 o o 2 2 $ $ $ : ; # O O O % q ~ ^ i 8 $ ",
"*.*.).S.C.s.1./.].*X[.M.n.V A wXS A & & m.m.' ' { { A S Z Z Z wXwXM V qXA ' V.=X%X*Xy y s.n.Y.^.I.U.R.A.A.b.M.n.L.A.A.C.A.g M.J.",
"*.*.).).C.j.1._.].%X*XM.M.A A wXS A e & m.z.' ' { { A A Z 0X0XwXwXM M A qX4.Z.=X%X*Xy y s.s.Y.R.P.U.U.C.^.n.M.n.L.A.A.V.V.g J.j.",
"A.C.|.].m.m.V.w.w.2 3 ^.).u.g.q.L C C C Z V ^.).M.P.M.4.#.U..XhXgX{ { b.b.6.u.L.m.M.(.(. X).B 6X8XqX9X* * D.h.I.P.A.S.eXeXrXS S ",
").V.].`.(._.[.c.v.8 8 ]._.u.g.2.L V 9X0XV V ^.B. X^.A.l.=.'. X~.Q.j.y.M.n.w.w.w.C.^.~.V.C.C.B B 9XV V . . C.U.C.C.m.m.S S S wXS ",
"^.^.Q.~.=X=X;X/./.6 6 %X].d.d.5.P qXZ C C Z d.B.XX[.).W.:.[.}.0.5.V.A.V.C.y.5.` ].].s.s.C.C.B B Z V V . . _.[.(._.j.m.A qXA eXeX",
"a a n.N.M.b.6.-X-X0.0.r.w.2.2.n.s.s.< 6 |.|.C.B.R..X'.(./.`.].[.|.(.)._ ( $ H ].[ { ^ o.A qXA A C V V V Z V C qX9XqX8X8XA [ L.n.",
"a a N.m.M.m.9.*X*X} q.w.w.2.2.L.d.s.< < |.|.B.V..X.X).'.].`.].|.=X)._._ _ + H &X[ [ #.^ A qXA C C C M Z A V V qXqX9XqXrXqX{ k.k.",
"y y R.^.j.w.} m.b.} } U.L.Q Q { ) ` 8 5 Y.Y.R.P.I.D.f.g.q.Y.Y.P.P.k.k.e.} o h m.h.u.U U B B C C V V V 9X9XB B 6X8XB B V V | ' 5.",
"y y ^.R.u.w.} b.M.} 0.P.P.Q Q Q ) ` 5 1 R.Y.P.R.G.G.f.q.q.Y.Y.P.G.k.k.} } X h m.j.D.U U V B C C V V B 9X9XB B 6X6Xm B V V | 5.5.",
"n.n.'.'.Q./.].( ( *.$.^.^.}.}.Q.(.'.;X;X9.p.y.a.d.d.d.N.B.(.`.p.b.u.e.V V qXZ V ^.).Z.V.) _ h.B.^.n.r.> - C 6XC C C 6X|.|.}.L.L.",
"z.b.'.'./._.%X( ( $.&.^.~.}.*Xv.~. X;X;X9.9.a.y.s.d.s.d.s.(.`.b.b.u.u.V Z 0X7XB ^.^.Z.A._ _ B.h.^.s.8.> > 6XC C C B 6X|.|.*XB.L.",
"J J @.O.&.+.+.O.O.,.,.,.,.x z v v v * * d d @.@.+.+.z l l j l K K d d +.O.t T $.o.^ < < d d t t @ y G s s ;.=.~ ~ J J d G i i u ",
"O.H +.O.=.%.@.O.X.,.,.,.:.x z v c c * * d d @.@.#.o.z l l l l K L d d O.+.e T *.o.o.< 6 u d t t @ y G s s ;.;.~ ~ J J p G i p i ",
"s.!.2.1.r.a.h.` ` y.p.N.B.B 6X6XV Z : : n.n.M.B.e.w.9XqX9X9XC Q.W.~.~.^.V.e.8.9.y.r.t y C.~.p.p.<.p.^.d.L.V.V.`./.~.^.C.U./.u.g.",
"r.p.s.s.L P P K K K P N.B.P P P P I G G y.y.n.s.n.b.K F z I I {.*Xr.8.].].N.c.v.<.5.+.+.`.`.V.~.9.b.).~ X.B.N.~.~.H H B.C.Z.n.C.",
"<.<.'.'.6X6XV V B n N N.n.s.s.p.s.B.!.^.8.8.y.s.N.V.2.d : =X=X;X;X] ] -X-XV.`.].` ' ].}.{.{.'.'.b.V.).9 9 L.B.N.N.6 6 V.^.V.'.).",
"q.t.t.g.v M M M M n n f.f.N.n.r.d.^.i.7.E E b.d.9.9.! a > L.P.v.v.{ {  X).).v.l.c.c.W.W.}.}.{ 3.r.9.b.u u N.n.W R o = n.n.y.g.g.",
"q.q.f.g.n n V M M n n f.f.n.b.8.d.U.i.i.E E d.d.9.9.! a 4 M.L.v.v.2.q.^.).Z.Z.l.z.c.W.W.*X*X{ { 0.9.z.u u N.n.W W o o n.n.s.g.t.",
"i.c.N.N.g.u.N.s.d.9.p.&X&X_.`.Q.!.s.p.p.Q.Q.N.Z.~.`.Q.-.+.r.0.y.y.d.d.r.r.b.9.} ~.^.).).[ 2.9XC B C C ' 4././.(.^.3 9 Z.Q.*X/.].",
"x.i.s.p.f.u.V.s.n.9.9.&X&X`.`.~.V.N.p.p.Q.Q.V.V.`.'.~.;.+.9.q.y.y.d.d.r.a.s.s.w.B.C.).).[ [ 0X7XV 6XZ 4.5./.].).).3 3 Q./.*X/./.",
"@.@.m m n v v $ # & 9 & & @ % & & % ; 5 d d r 3 u u h p 9 Y f & 3 J J r 9 r q q t a = = e e d s =.F l x x c z X.X.X.X.s s l c v ",
"@.@.m n v v v @ # 3 9 & & % % 3 & % ; ; d d r r d u f i r f f & & J J 9 9 e q q t w ; = e q d d =.F z x x x z X.X.X.X.a s l v z ",
"!.`.7X7XqX8XV u.d.8.8.) ! 6.w.}.].].8 8 }.}.p.N.`.`.b.y.r.^.^.{.}.^.Q.-XgX!.!.s.2.[ + o ^.~.^.C.^.I B V B 7X7XC.N.C.!. X%Xm C C ",
"!.!.7X7X9X7XV h.h.9.8.! ! r.w.}.].].8 8 }.}.c.p.].`.s.y.9.^.^.}.}.~.(.-X-X!.s.s.2.[ O + ~.^.^.U.^.I B V V 6X7XM.B.^.C.'._.m C C ",
"s.s.*X*X}.{.{.^.C.! ! B 6X0X7XV >.^.^.^.p.Q.B B B B V k O `.`./.].| | N.N.^.s.5.y.y.0.2.C.B.XXXX'.!.y.1 1 L.n.gXgX=.=.8.5.9.A.S.",
"` 2.|.].v.W.Q.s.r.Q W 7XV B V B P L.B.d.N.p.B B B B V k X c.N.p.s.q.f.s.s.'.B.0.[ [ j.y.N.V.h.n.^.s.s.1 # N.N.b.c.-.-.y.9.z.Q.(.",
"W W `.'.:.*.z.' ' W W V V B B N >.g.t.q.s.s.B N 7X7XB j . r.8.` ) s.y.r.w.XXA.u.{ ) Z.N.V.v.{ | g.s.p.2 2 x.x.) W Q.l.z.b.N.Z./.",
"qX8Xd.!.a.a.d.(.).n.d.t.s.[ 2.n.s.!.y y 0.5.(.Q.`./.V.b.d.E E *X=Xp.p.b.s.8X7X6X7XV * * V 7X0X7XB P d.t.y.n.n.].].w.5.y.y.7XB 6X",
"qX9X!.d.a.a.d.(.Z.d.n.s.u.2.2.N.B.B.y p 5.5./.(.(.(.V.b.s.E / *X=Xs.s.s.s.6X7X6X7X7X* * V B V 0XB P d.w.w.N.B.].`.0.0.s.r.7XB B ",
"7XV B 7Xd %.C.q.q.' *.' ` e.w.B.>.0X8X8Xm 6X*.$.4.$.v.i.-.l.i.8.<.+ + *.i.! Q ] 9X0XB V B B t.2.N.z.p.V V V V M B N n c.z.i.z.c.",
"6XV B N f %.B.q.0.*.' ' ` w.e.U.I 0X8X8X6XB *.4._ $.v.:.=.z.l.8.7.+ + 7.7.! ] f.7X7XV V B B 2.t.V.z.9.V V Z V B N n N p.z.i.z.z.",
"V 9XV V y o.c.&X}.d.d.V.C.*X=Xz.P 7XqXqX6X7Xa.u.C.^.[.(.W.9.p.2.2.#.#.r.2.1.2.2.V 7XZ 7XV V B.d.y.b.(.6X8XB V N N c c N.V.`.s.b.",
"qX0XB 7Xy o.b.{.{.d.h.C.C.=X*Xb.P 7XqXqX7X6Xu.h.C.C.]./.Q.9.9.2.r.#.#.r.2.1.2.2.7XV V V V M d.n.y.N.Z.8X9XV V N N c c N.B.(.n.y.",
"v.x.^.~.}.^.N.[.[.B.N.p.p.A.A.9.9.8.#.T =X=Xn.M.V.C.h.!.(.!.!.p.s.d.d.8.8.1.1.( t.u.5 5 d.h.C.C.P.k.y.hXhX2.' Q.Q.^.~.V.V.C V M ",
"v.v.~.^.}.^.n.[.[.N.B.s.9.A.A.s.y.8.#./ =X=XM.n.~.^.h.!.`.!.!.s.s.B.h.8.8.<.( ! e.t.5 5 d.a.C.V.L.n.d.hXhX' 1.Q.Q.V.^.!.V.B V V ",
"*.i.^ o.Y ^ / %.%.%.#.o.T O.O.#.T Y s d E E &.&.=.=.*.*.$.$.$./ ( &.&.%.%.Y T ^ W.x.; ; 7.7.&.&.$.&.&.T X.T T ,.,.i.i.6.6.V V V ",
"*.*.o.^ T ^ / %.#.%.#.o.X.O.@.#.R Y d d #.T &.&.=.=.*.4.$.( $.( ( &.&.$.&.Y Y ^ W.v.; ; 7.7.$.*.#.$.&.~ T T ^ ,.,.i.i.5.6.V V V ",
"B B B B x b 7X0X0X8X8X'.|.].}.^.I M V V 0XZ f.f.!.~.n.f X 9.r.8.7.{ { s.p.(.].=Xb.b.n.N.~.^.] ] s.a.a.].'.`.`.`.^.: : V C C 9X9X",
"` ' 6.j.|.`.'.3.t.2.2.1.1.:.i.`.m.z.%.%. X).r.s.N.V.p.7.$.(.(.6X6X7XC 6XC M.d.s././.= = s.d.t.r.=.*.5.3.t.2.2.].].}.-Xc.Z.) ) ) ",
"' ` y.y.[.'.).2.3.] 2.<.<.:.l.(.v.p.%.#.).).s.s.c.V.9.7.&./.~.6XB V 0X9X9XM.d.u.]./.X X s.n.y.3.=.-.2.t.3.t.2.}.].-X*Xv.z.) ) ) ",
"b.j.C.).n.M.^.1.2.q.q.! ! :.:.}.b.` +.@.P.n.B.L.r.r.B.y.' ].].B V 7X9XB V B.^.|.w.w.- - j.n.h.h.-.i.a.! ! 1.[ '.[.C.C.M.P.' b.b.",
"j.u.^.^.b.B.^.[ 2.q.q.) _ :.:.}.b.` O.@.C.n.B.n.y.y.n.y.' ].].V V 9X9XB V n.^.XXw.w.. - n.d.h.h.-.i.a.! ! ` 1.'.[.V.C.P.M.' z.N.",
"].].(.(.7 z V V Z Z A V.b.N.N.N.`.*X-X-Xv.V.B B 6X7XB j * 0.2.r.r.n.n.W.,.Q.~.N.Q.~.*X*X~.~.M V 7X7XB 0.q.^.^.1.1.4 > qX9XV 8X9X",
"`.].`.~.j z V V Z Z 0XN.N.N.V.N.Q.{.-X-XQ.Q.N B 7XB V l * 2.2.r.r.L.h.,./.Q.V.V.i.Q.|.}.(.Q.B M qXB B w.0.^.^.1.' > : 6X0X7X6X6X",
"1 1 0 0 # r d 8 2 1 1 = : 4 4 j j 7 7 7 2 2 , < < , 6 ; X ; ; - = = = 1 < j j x j j : = < < : ; : ; 6 < , 1 1 > 7 , < o + o 1 2 ",
"1 1 0 0 2 r d 8 1 1 1 : - 4 4 7 7 j 7 7 2 2 < < o < 4 ; X ; ; - : = = < < 7 j x j j = - < , ; : - ; < ; ; 8 1 7 > , , < o + @ 1 ",
"r.r.1.2.d #.c.=X|.d.d.p.p.C C 6X6XB m m s.d.! ] ) ) ;XgXgXU.U.y.w.d.d.|.XXB B A B B - > N.N.V.V.:.l.s.`.`.P.P.m m > : N.s.!._ E ",
"r.r.2.1.f %.c.|.}.n.s.i.i.B C 6XB B m m d.d.] ! ` ` gXgXgXU.U.9.w.d.d.|.XXN B 9XB B > > N.N.B.^.:.l.s.`.`.P.L.B N : > s.n.~.( _ ",
"3.3.a.a.'.B.y.~.~.E R hXgXV.m.{ t.V.!.!.B.B.{ { d.d.[ ^ u |.|.`.(.B.B.V.V.'.(.V.!.Q.n.d.1.1.u.g.s.c.v.! ! u.e.9X7X7X6X6Xm B 6XV ",
"] ! d.g.(.7.R x.x.N.n.j.s.n.b.}.'.U.t.t.2.2.] ] n.n.y.o.p a.a.( $.d.n.c.c.b.~.].d.d.p.p.p.N.3.3.| { q.} | L.L.m 6XN N v b M B B ",
"] 1.D.d.(.<.R Q.i.d.N.y.b.n.d.].'.U.q.t.2.2.[ ] s.n.t.o.p s.d.$.! n.N.c.c.Z.Q.].d.d.s.s.c.N.3.3.Q q.t.| } P.L.6XB N 6Xn v V B M "
};
