/* XPM */
static char *result[] = {
/* columns rows colors chars-per-pixel */
"64 64 10 1 ",
"  c #1A1C2C",
". c #652D3F",
"X c #3B2144",
"o c #502742",
"O c #4C2451",
"+ c #5D275D",
"@ c #76304C",
"# c #873258",
"$ c #B13E53",
"% c #94B0C2",
/* pixels */
"$$++$$$$$$$++$$+#$$$$$$$++$$$$$$$++$$$$$$$++$$$$$$$++$$$$$$$$$$$",
"$$++$$$$$$$++$$+#$$$$$$$++$$$$$$$++$$$$$$$++$$$$$$$++$$$$$$$$$$$",
"  $$+X $$  $$  +#$  $$  $$$. $$  ++$$ .$  $$$$  $. $$$$  $$  $  ",
"  $$+X $$  $$  +#$  $$  $$$. $$  ++$$ .$  $$$$  $. $$$$  $$  $  ",
"$$$$$$$++$$++$$+++$$++$$+++#$++$$++++$#+$$++++$$+#$++++$$++$$$$$",
"$$$$#@.XX..XX..XXX..XX..XXXo.XX..XXXX.oX..XXXX..Xo.XXXX..XX..$$$",
"$$$$+X                                                       $$$",
"$$+++++++++$$++$#+++$$+++++++$$++$$+++#$++++++++$#+$$++++$$  $$$",
"$$+++++++++$$++$#+++$$+++++++$$++$$+++#$++++++++$#+$$++++$$  $$$",
"$$$$+++++         $$$$++++           +#$++++           ++$$  $$$",
"$$$$+++++         $$$$++++           +#$++++           ++$$  $$$",
"$$+++++++$$$$$$$$$++$$++++ .$$$$$$$$$+#$++++  $$$$$$$$$++$$  $$$",
"$$+++++++$$$$$$$$$++$$++++ .$$$$$$$$$+#$++++  $$$$$$$$$++$$  $$$",
"+++++++++$$$$$$$$$++$$++++ .$$$$$$$$$+#$++++  $$$$$$$$$++$$  $++",
"+++++++++$$$$$$$$$++$$++++ .$$$$$$$$$+#$++++  $$$$$$$$$++$$  $++",
"$$+++++++$$$$$$$$$++$$++++ .$$$$$$$$$+#$++++  $$$$$$$$$++$$  $$$",
"##+++++++$$$$$$$$$++$$++++ .$$$$$$$$$+#$++++  $$$$$$$$$++$$  $##",
"+++++++++$$$$$$$$$++$$++++ .$$$$$$$$$+#$++++  $$$$$$$$$++$$  $++",
"$$$$+++++$$$$$$$$$++$$++++ .$$$$$$$$$+#$++++  $$$$$$$$$++$$  $$$",
"$$$$+++++$$$$$$$$$++$$++++ .$$$$$$$$$+#$++++  $$$$$$$$$++$$  $$$",
"+++++++++$$$$$$$$$++$$++++ .$$$$$$$$$+#$++++  $$$$$$$$$++$$  $++",
"+++++++++$$$$$$$$$++$$++++ .$$$$$$$$$+#$++++  $$$$$$$$$++$$  $++",
"$$$$+++++$$$$$$$$$++$$++++ .$$$$$$$$$+#$++++  $$$$$$$$$++$$  $$$",
"$$$$+++++$$$$$$$$$++$$++++ .$$$$$$$$$+#$++++  $$$$$$$$$++$$  $$$",
"$$+++++++$$$$$$$$$$$$$++++ .$$$$$$$$$+#$++++  $$$$$$$$$++$$  $$$",
"$$+++++++$$$$$$$$$$$$$++++ .$$$$$$$$$+#$++++  $$$$$$$$$++$$  $$$",
"$$$$+++++$$$$$$$$$$$$$++++ .$$$$$$$$$+#$++++  $$$$$$$$$++$$  $$$",
"$$$$+++++$$$$$$$$$$$$$++++ .$$$$$$$$$+#$++++  $$$$$$$$$++$$  $$$",
"$$$$+++++$$$$$$$$$$$$$++++ .$$$$$$$$$+#$++++  $$$$$$$$$++$$  $$$",
"++$$+++++$$$$$$$$$$$$$++++ .$$$$$$$$$+#$++++  $$$$$$$$$++$$  $  ",
"++$$+++++$$$$$$$$$$$$$++++ .$$$$$$$$$+#$++++  $$$$$$$$$++$$  $  ",
"$$+++++++$$$$$$$$$$$$$++++ .$$$$$$$$$+#$++++  $$$$$$$$$++$$  $$$",
"$$+++++++$$$$$$$$$$$$$++++ .$$$$$$$$$+#$++++  $$$$$$$$$++$$  $$$",
"+++++++++$$$$$$$$$$$$$++++ .$$$$$$$$$+#$++++  $$$$$$$$$++$$  $++",
"+++++++++$$$$$$$$$$$$$++++ .$$$$$$$$$+#$++++  $$$$$$$$$++$$  $++",
"$$$$+++  $$$$$$$$$$$$$++++ .$$$$$$$$$+#$++++  $$$$$$$$$++$$  $$$",
"$$$$+++  $$$$$$$$$$$$$++++ .$$$$$$$$$+#$++++  $$$$$$$$$++$$  $$$",
"+++++++  $$$$$$$$$$$$$++++ .$$$$$$$$$+#$++++  $$$$$$$$$++$$  $++",
"####XO+  $$$$$$$$$$$$$++++ .$$$$$$$$$+#$++++  $$$$$$$$$++$$  $##",
"$$$$ X+  $$$$$$$$$$$$$++++ .$$$$$$$$$+#$++++  $$$$$$$$$++$$  $$$",
"$$+++++  $$$$$$$$$$$$$++++ .$$$$$$$$$+#$++++  $$$$$$$$$++$$  $$$",
"$$+++++  $$$$$$$$$$$$$++++ .$$$$$$$$$+#$++++  $$$$$$$$$++$$  $$$",
"$$$$+++  $$$$$$$$$$$$$++++ .$$$$$$$$$+#$++++  $$$$$$$$$++$$  $$$",
"$$$$+++  $$$$$$$$$$$$$++++ .$$$$$$$$$+#$++++  $$$$$$$$$++$$  $$$",
"$$+++++  $$$$$$$$$$$$$++++ .$$$$$$$$$+#$++++  $$$$$$$$$%%$$  $$$",
"$$+++++  $$$$$$$$$$$$$++++ .$$$$$$$$$+#$++++  $$$$$$$$$%%$$  $$$",
"$$$$+++  $$$$$$$$$$$$$++++ .$$$$$$$$$+#$++++  $$$$$$$$$%%$$  $$$",
"$$$$+++  $$$$$$$$$$$$$++++ .$$$$$$$$$+#$++++  $$$$$$$$$%%$$  $$$",
"$$+++++  $$$$$$$$$++$$++++ .$$$$$$$$$+#$++++  $$$$$$$$$%%$$  $$$",
"$$+++++  $$$$$$$$$++$$++++ .$$$$$$$$$+#$++++  $$$$$$$$$%%$$  $$$",
"+++++++  $$$$$$$$$++$$++++ .$$$$$$$$$+#$++++  $$$$$$$$$++$$  $++",
"$$+++++  $$$$$$$$$++$$++++ .$$$$$$$$$+#$++++  $$$$$$$$$++$$  $$$",
"$$+++++  $$$$$$$$$++$$++++ .$$$$$$$$$+#$++++  $$$$$$$$$++$$  $$$",
"+++++++  $$$$$$$$$++$$++++ .$$$$$$$$$+#$++++  $$$$$$$$$++$$  $++",
"+++++++  $$$$$$$$$++$$++++ .$$$$$$$$$+#$++++  $$$$$$$$$++$$  $++",
"$$$$+++  $$$$$$$$$++$$++++ .$$$$$$$$$ .$++++  $$$$$$$$$++$$  $$$",
"$$$$+++  $$$$$$$$$++$$++++ .$$$$$$$$$ .$++++  $$$$$$$$$++$$  $$$",
"++$$+++  $$$$$$$$$++$$++++ .$$$$$$$$$+#$++++  $$$$$$$$$++$$  $  ",
"++$$+++  $$$$$$$$$++$$++++ .$$$$$$$$$+#$++++  $$$$$$$$$++$$  $  ",
"$$$$+++  $$$$$$$$$  $$++++ .$$$$$$$$$ .$++++  $$$$$$$$$++$$  $$$",
"$$$$+++  $$$$$$$$$  $$++++ .$$$$$$$$$ .$++++  $$$$$$$$$++$$  $$$",
"+++++++  $$$$$$$$$  $$++++ .$$$$$$$$$+#$++++  $$$$$$$$$++$$  $$$",
"$$$$+++  $$$$$$$$$  $$++++ .$$$$$$$$$ .$++++  $$$$$$$$$++$$  $$$",
"$$$$+++  $$$$$$$$$  $$++++ .$$$$$$$$$ .$++++  $$$$$$$$$++$$  $$$"
};
