/* XPM */
static char *result[] = {
/* columns rows colors chars-per-pixel */
"64 64 13 1 ",
"  c #070505",
". c #2C1F17",
"X c #211919",
"o c #3D2817",
"O c #392921",
"+ c #4D3016",
"@ c #5A3A20",
"# c #523A2A",
"$ c #603D20",
"% c #734A29",
"& c #945B28",
"* c #C19C4D",
"= c #B8AAB0",
/* pixels */
"&&##&&&&&&&##&&#%&&&&&&&##&&&&&&&##&&&&&&&##&&&&&&&##&&&&&&&&&&&",
"&&##&&&&&&&##&&#%&&&&&&&##&&&&&&&##&&&&&&&##&&&&&&&##&&&&&&&&&&&",
"XX&&#OX&&XX&&XX#%&XX&&XX&&#OX&&XX##&&X@&XX&&&&XX&@X&&&&XX&&XX&XX",
"XX&&#OX&&XX&&XX#%&XX&&XX&&#OX&&XX##&&X@&XX&&&&XX&@X&&&&XX&&XX&XX",
"&&&&&&&##&&##&&###&&#######%&##&&####&%#&&####&&#%&####&&##&&&&&",
"&&&&%$+..++..++...++.......o+..++....+o.++....++.o+....++..++&&&",
"&&&&#.                                                       &&&",
"&&##################&&#######&&#######%&########&%#######&&  &&&",
"&&##################&&#######&&#######%&########&%#######&&  &&&",
"&&&&#####XXXXXXXXX##&&####XXXXXXXXXXX#%&####XXXXXXXXXXX##&&  &##",
"&&&&#####XXXXXXXXX##&&####XXXXXXXXXXX#%&####XXXXXXXXXXX##&&  &##",
"&&#######&&&&&&&&&##&&####X@&&&&&&&&&#%&####XX&&&&&&&&&##&&  &&&",
"&&#######&&&&&&&&&##&&####X@&&&&&&&&&#%&####XX&&&&&&&&&##&&  &&&",
"#########&&&&&&&&&##&&####X@&&&&&&&&&#%&####XX&&&&&&&&&##&&  &##",
"#########&&&&&&&&&##&&####X@&&&&&&&&&#%&####XX&&&&&&&&&##&&  &##",
"&&#######&&&&&&&&&##&&####X@&&&&&&&&&#%&####XX&&&&&&&&&##&&  &&&",
"%%#######&&&&&&&&&##&&####X@&&&&&&&&&#%&####XX&&&&&&&&&##&&  &%%",
"#########&&&&&&&&&##&&####X@&&&&&&&&&#%&####XX&&&&&&&&&##&&  &##",
"&&&&#####&&&&&&&&&##&&#### +&&&&&&&&&#%&####XX&&&&&&&&&##&&  &&&",
"&&&&#####&&&&&&&&&##&&#### +&&&&&&&&&#%&####XX&&&&&&&&&##&&  &&&",
"#########&&&&&&&&&##&&#### +&&&&&&&&&#%&####XX&&&&&&&&&##&&  &##",
"#########&&&&&&&&&##&&#### +&&&&&&&&&#%&####XX&&&&&&&&&##&&  &##",
"&&&&#####&&&&&&&&&##&&#### +&&&&&&&&&#%&####XX&&&&&&&&&##&&  &&&",
"&&&&#####&&&&&&&&&##&&#### +&&&&&&&&&#%&####XX&&&&&&&&&##&&  &&&",
"&&#######&&&&&&&&&##&&#### +&&&&&&&&&#%&####XX&&&&&&&&&##&&  &&&",
"&&#######&&&&&&&&&##&&#### +&&&&&&&&&#%&####XX&&&&&&&&&##&&  &&&",
"&&&&#####&&&&&&&&&##&&#### +&&&&&&&&&#%&####XX&&&&&&&&&##&&  &&&",
"&&&&#####&&&&&&&&&##&&#### +&&&&&&&&&#%&####XX&&&&&&&&&##&&  &&&",
"&&&&#####&&&&&&&&&##&&#### +&&&&&&&&&#%&####XX&&&&&&&&&##&&  &&&",
"##&&#####&&&&&&&&&&&&&#### +&&&&&&&&&#%&####XX&&&&&&&&&##&&  &XX",
"##&&#####&&&&&&&&&&&&&#### +&&&&&&&&&#%&####XX&&&&&&&&&##&&  &XX",
"&&#######&&&&&&&&&&&&&#### +&&&&&&&&&#%&####XX&&&&&&&&&##&&  &&&",
"&&#######&&&&&&&&&&&&&#### +&&&&&&&&&#%&####XX&&&&&&&&&##&&  &&&",
"#########&&&&&&&&&&&&&#### +&&&&&&&&&#%&####XX&&&&&&&&&##&&  &##",
"#########&&&&&&&&&&&&&#### +&&&&&&&&&#%&####XX&&&&&&&&&##&&  &##",
"&&&&#####&&&&&&&&&&&&&#### +&&&&&&&&&#%&####XX&&&&&&&&&##&&  &&&",
"&&&&#####&&&&&&&&&&&&&#### +&&&&&&&&&#%&####XX&&&&&&&&&##&&  &&&",
"#########&&&&&&&&&&&&&####X@&&&&&&&&&#%&####XX&&&&&&&&&##&&  &##",
"%%%%###OO&&&&&&&&&&&&&####X@&&&&&&&&&#%&####XX&&&&&&&&&##&&  &%%",
"&&&&###XX&&&&&&&&&&&&&####X@&&&&&&&&&#%&####XX&&&&&&&&&##&&  &&&",
"&&#######&&&&&&&&&&&&&####X@&&&&&&&&&#%&####XX&&&&&&&&&##&&  &&&",
"&&#######&&&&&&&&&&&&&####X@&&&&&&&&&#%&####XX&&&&&&&&&##&&  &&&",
"&&&&###XX&&&&&&&&&&&&&####X@&&&&&&&&&#%&####XX&&&&&&&&&##&&  &&&",
"&&&&###XX&&&&&&&&&&&&&####X@&&&&&&&&&#%&####XX&&&&&&&&&##&&  &&&",
"&&#####XX&&&&&&&&&&&&&####X@&&&&&&&&&#%&####XX&&&&&&&&&==&&  &&&",
"&&#####XX&&&&&&&&&&&&&####X@&&&&&&&&&#%&####XX&&&&&&&&&==&&  &&&",
"&&&&###XX&&&&&&&&&##&&####X@&&&&&&&&&#%&####XX&&&&&&&&&==&&  &&&",
"&&&&###XX&&&&&&&&&##&&####X@&&&&&&&&&#%&####XX&&&&&&&&&==&&  &&&",
"&&#####XX&&&&&&&&&##&&####X@&&&&&&&&&#%&####XX&&&&&&&&&==&&  &&&",
"&&#####XX&&&&&&&&&##&&####X@&&&&&&&&&#%&####XX&&&&&&&&&==&&  &&&",
"#######XX&&&&&&&&&##&&####X@&&&&&&&&&#%&####XX&&&&&&&&&##&&  &##",
"&&#####XX&&&&&&&&&##&&#### +&&&&&&&&&#%&####XX&&&&&&&&&##&&  &&&",
"&&#####XX&&&&&&&&&##&&#### +&&&&&&&&&#%&####XX&&&&&&&&&##&&  &&&",
"#######XX&&&&&&&&&##&&#### +&&&&&&&&&#%&####XX&&&&&&&&&##&&  &##",
"#######XX&&&&&&&&&##&&#### +&&&&&&&&&#%&####XX&&&&&&&&&##&&  &##",
"&&&&###XX&&&&&&&&&##&&#### +&&&&&&&&&#%&####XX&&&&&&&&&##&&  &&&",
"&&&&###XX&&&&&&&&&##&&#### +&&&&&&&&&#%&####XX&&&&&&&&&##&&  &&&",
"##&&###XX&&&&&&&&&##&&#### +&&&&&&&&&#%&####XX&&&&&&&&&##&&  &XX",
"##&&###XX&&&&&&&&&##&&#### +&&&&&&&&&#%&####XX&&&&&&&&&##&&  &XX",
"**&&###XX&&&&&&&&&##&&#### +&&&&&&&&&#%&####XX&&&&&&&&&####  &&&",
"**&&###XX&&&&&&&&&##&&#### +&&&&&&&&&#%&####XX&&&&&&&&&####  &&&",
"#######XX&&&&&&&&&##&&#### +&&&&&&&&&#%&####XX&&&&&&&&&##&&  &&&",
"**&&###XX&&&&&&&&&##&&#### +&&&&&&&&&#%&####XX&&&&&&&&&##&&  &&&",
"**&&###XX&&&&&&&&&##&&#### +&&&&&&&&&#%&####XX&&&&&&&&&##&&  &&&"
};
