/* XPM */
static char *result[] = {
/* columns rows colors chars-per-pixel */
"64 64 149 2 ",
"   c #0F0506",
".  c #150404",
"X  c #1C0201",
"o  c #160807",
"O  c #180807",
"+  c #130608",
"@  c #1A0708",
"#  c #190809",
"$  c #230102",
"%  c #2D0202",
"&  c #330101",
"*  c #3C0502",
"=  c #3F010F",
"-  c #3B0311",
";  c #420603",
":  c #4B0503",
">  c #410803",
",  c #4D0806",
"<  c #520202",
"1  c #5C0404",
"2  c #500905",
"3  c #430111",
"4  c #4C0113",
"5  c #4C041C",
"6  c #45081D",
"7  c #510216",
"8  c #54041D",
"9  c #5B031A",
"0  c #650501",
"q  c #6D0502",
"w  c #660803",
"e  c #740402",
"r  c #7C0503",
"t  c #740904",
"y  c #7C0802",
"u  c #7B0708",
"i  c #730A09",
"p  c #7A0A08",
"a  c #6D0413",
"s  c #63031E",
"d  c #6C031E",
"f  c #740413",
"g  c #7B0313",
"h  c #470521",
"j  c #490420",
"k  c #5D0423",
"l  c #640323",
"z  c #6C0322",
"x  c #650428",
"c  c #6A052A",
"v  c #720224",
"b  c #7A0327",
"n  c #710529",
"m  c #750829",
"M  c #780A29",
"N  c #820503",
"B  c #8B0503",
"V  c #830805",
"C  c #840708",
"Z  c #930503",
"A  c #9A0504",
"S  c #930905",
"D  c #9E0A05",
"F  c #9B0609",
"G  c #A50602",
"H  c #AB0502",
"J  c #A60802",
"K  c #B40501",
"L  c #BD0702",
"P  c #B40C06",
"I  c #BE0A03",
"U  c #B40D08",
"Y  c #BA0A09",
"T  c #810129",
"R  c #88032C",
"E  c #870A2C",
"W  c #8C0D2C",
"Q  c #8E0F33",
"!  c #960430",
"~  c #9B0333",
"^  c #930B34",
"/  c #970939",
"(  c #9F0D3B",
")  c #9E1836",
"_  c #96133B",
"`  c #9D1138",
"'  c #A30535",
"]  c #A70A38",
"[  c #AE0A3A",
"{  c #B30C37",
"}  c #B3073D",
"|  c #B30D3D",
" . c #B90E3E",
".. c #A51936",
"X. c #A21739",
"o. c #B71137",
"O. c #B3113E",
"+. c #BB1139",
"@. c #C30703",
"#. c #CB0701",
"$. c #C30903",
"%. c #CB0902",
"&. c #D00A02",
"*. c #C91336",
"=. c #C41639",
"-. c #C9163C",
";. c #C71839",
":. c #B60D43",
">. c #BC0E42",
",. c #AE1643",
"<. c #A71B41",
"1. c #B61241",
"2. c #BD1143",
"3. c #BF1A43",
"4. c #AC2047",
"5. c #AE214B",
"6. c #BA2351",
"7. c #BE2B58",
"8. c #C30E40",
"9. c #C31243",
"0. c #C91346",
"q. c #C4234B",
"w. c #DE274B",
"e. c #D12E4F",
"r. c #DD2A4D",
"t. c #DE314F",
"y. c #D32D53",
"u. c #DE2C53",
"i. c #DA2F5C",
"p. c #CD345C",
"a. c #D7335E",
"s. c #DA315C",
"d. c #E22A46",
"f. c #E0264A",
"g. c #E22B4D",
"h. c #E32D51",
"j. c #E13153",
"k. c #E4345D",
"l. c #E9345E",
"z. c #E6395F",
"x. c #D53661",
"c. c #DF3460",
"v. c #E33562",
"b. c #EC3661",
"n. c #E33962",
"m. c #EF3668",
"M. c #ABB6B8",
"N. c #ABBCBE",
"B. c #C7C8D5",
/* pixels */
"g.g.k k h.h.h.a.a.g.t.s l t.t.s ..h.h.h.s.y.f.f.l l h.g.h.s.s.d.d.v v e.e.u.u.s.d.g.d d j.j.h.f.i.u.f.s s d.g.g.r.s.i.f.f.h.h.g.",
"g.g.k k j.j.h.a.a.t.g.s l t.t.d ..h.h.h.s.s.f.w.d s h.h.h.i.s.d.d.v v e.e.u.u.s.d.d.d d j.j.h.h.i.u.f.s s f.f.h.g.s.i.f.h.f.h.j.",
"j j >.8.E z 5 ;.;.8 8 { o.8 6 M ^ { 5 5 ;.-.5 6 [ [ ! m j -.*.8 9 b b | O.5 W -.h h ^ ^ ] ( 6 5 *.E j { [ ] ] 5 5 *.*.5 5 / 5 5 ",
"k j 8.8.E c 8 ;.;.7 8 o.o.6 5 M ^ { 5 4 ;.-.6 4 :.[ ^ n j =.*.8 8 b b O.| 8 W -.j j ^ ^ ` ( 5 5 =.E 5 [ [ ] ] 5 5 -.*.5 5 / 5 5 ",
"k.k.k.k.3. .} l s ~ ~ z d ( ~ T b v ~ ~ l l ! ! v b b R ~ l l ~ ~ v v d z ' T l ~ ~ z v v z ' ' l b ~ v b b b ' ' l l ' ' ' n.c.",
"k.l.j.u.Q m s - = 9 7 3 = 9 9 7 4 4 9 9 3 3 9 7 4 4 4 4 9 - = 9 9 3 4 3 3 9 5 3 9 9 3 3 3 3 s 9 3 4 9 4 4 4 4 9 s 3 3 9 k [ c.n.",
"l.l.u.h.k - . . . . X . . . . X X X X X X X X X . X X X X . . X . X X X X $ X X X $ X X X X X X X X $ $ $ $ $ X X % $ +   1.n.c.",
"g.f.l l s f y y e e e B Z N N Z B r e y A G B N N N r N C F A N N Z Z N N N B G N N r r B B r C Z Z N Z B r r r r Z S . . 1.h.t.",
"g.r.l l l f C r r e e Z Z N N Z B r e e G D C N C N N C N F F N N Z Z N r N B G N C r N B B r r F B V S B r y y e Z Z . . O.g.g.",
",.,.] ` d f N e e & & & & & & % % % B B H G N u N N % & & & * * * & & & & C Z A N r N N , , * * & & % % % & % B V A A . . :.Q ^ ",
",.,.` ` z f C r r & % & & & & % % & B B G G C C C N % & & * & * * & * & & r B D r N N C , , * * & & & % % & % V B A A . . 2.^ ^ ",
"r.u.l l v g B e e K H #.%.&.%.L I $.N N H H C N C r & e L @.I $.@.$.I L @.r B G N N N N , , @.#.%.@.$.I I I I B C A A . . 1.g.h.",
"t.r.x l n g B e e H H %.%.%.%.$.$.L B B H H N N r N & e I I I %.#.$.I I I y Z A N N N N : : @.@.@.#.$.$.I I I N B A A . X O.h.h.",
"l l l x n C C u r G G $.$.#.%.I L L B B G G C r N r & e I $.%.%.%.$.$.$.$.r B A N r N N 2 , @.@.$.%.&.L I I $.V N A A . . O.c c ",
"l l l l v g B r r H G %.%.%.%.$.L L B B G H N N y N & r K %.$.%.%.I $.I $.r B G C N N N , , %.$.%.#.&.@.I I I B N D D . o 1.c c ",
"u.g.k k z g B e e H H $.$.&.%.$.I I B B J J C N C N & t I $.$.%.%.I I $.I y B A r e N N , , $.@.$.$.#.I I I I N B Z S . . 1.d.d.",
") X.k k v C C r r H G #.%.#.%.$.I I N B H G N r N N & e L %.$.%.#.$.$.$.@.r B F r r N r , , $.$.$.$.%.I I I $.N N Z Z . . 1.....",
"k l l l v g B N N H G @.%.#.#.I I $.B B H H N N N N & e K %.$.%.#.$.$.Y $.u Z G N N N N ; 4 $.$.$.%.#.$.I $.I B N A A . . O.c c ",
"l.l.x.x.z f N r r H H #.%.%.%.I I I B N H J N r r N $ q P %.$.%.%.$.$.$.$.u B G N N C r > * %.$.$.%.#.I @.I I B B D S . . 1.c.n.",
"l.l.x.x.d u N r N H H #.$.#.%.$.I $.N N H H N N r r % q P %.%.%.%.$.$.@.@.u Z G N r r C > > $.$.%.%.#.$.L @.I B N A A . . | n.n.",
"l z s l v g C r N H K @.$.%.%.I I L N B G H B N B N $ e I #.@.%.$.$.$.$.$.r Z G N r C N ; ; $.$.$.%.%.I I $.@.V B A A X . 1.z d ",
"z l l l n g N N N H H @.$.&.&.I I L B N H J B N B B % q I @.%.%.#.$.$.$.$.r B G N N N N ; ; $.$.$.%.#.I I I L V N D A . X O.d z ",
"v.v.s.v.s f B r C K Y $.$.%.%.$.$.I B N A G e t r r $ q I @.@.%.%.I I I I r B G N N N N * * $.$.$.$.#.$.$.@.L N B Z A O o | c.c.",
"v.v.v.k.s g V r u K K $.%.%.%.$.I $.N B D A r r r r $ q I #.%.%.%.I I I @.u Z G N N N N * * %.$.%.%.#.I $.L @.B B Z Z O O | c.c.",
"h.h.k k z g N r r L @.@.$.&.#.Y I I B B H H N N N N % e I %.$.%.$.$.I $.$.y Z H N N N N ; ; @.$.$.%.%.$.$.I I N N D A @ @ +.w.w.",
"h.h.l k z f N r r @.@.@.$.&.&.Y I $.B B H H N N N N $ q I $.@.%.$.$.$.$.$.t Z H r N N N * ; $.@.$.$.%.$.$.I $.N B A A @ @  .w.w.",
"7.7.x.p.d u C y u #.@.#.$.&.&.Y I $.B B H H N N C C $ e I %.$.%.%.$.$.I @.e Z H N N N N * * $.$.$.%.%.I I I $.V N A D @ #  .p.p.",
"y.y.q.q.d g N u f @.@.$.$.%.&.$.$.I Z Z G G r N N r $ q I $.%.%.%.$.$.$.$.u F G N N r r ; ; $.$.$.%.%.I $.I I N N Z A o @ +.y.y.",
"f.f.o.o.d f V i i @.@.$.$.&.&.$.I $.Z Z G A e e e e $ e I #.%.%.%.$.$.$.$.r B G r r r r , , $.$.$.$.%.$.$.I I V N A A . o O.f.r.",
"x x =.=.d f V i t $.$.@.@.&.%.$.I I A Z H H N N N B $ q I %.%.%.$.$.$.I Y r Z H N r N N 2 2 $.$.%.%.%.$.I I I V C A A . . >.6 6 ",
"k l =.=.s f V i t $.$.$.%.&.&.Y I I Z A H H N N B N $ q K #.#.%.%.$.$.$.K u B G C N N C 2 2 $.$.$.%.%.$.$.I I N N Z A . o >.6 6 ",
"u.y.z z l f C i i @.$.@.$.%.%.$.I I Z A H H r N N r $ q I $.$.%.%.Y I I $.u F G r C N C : : $.$.%.$.%.I I I I N N A A . . >.t.r.",
"e.u.z v l f p i f $.$.#.$.&.&.Y L L Z Z H H N r r N X q I $.$.$.%.$.I I I e B G N N N N : : $.$.#.@.#.$.I I I V N Z A . . >.u.r.",
"x x l k z f C i i $.$.$.$.%.%.$.$.L Z A H H r r N N $ q L %.%.%.%.I I I I t Z H N N N N : : L I #.%.%.L I I I N N A A X . >.x x ",
"x x k k z g C i i $.@.$.$.&.&.$.I L A A H H C N N N $ e L #.%.%.%.I I I $.e Z H N N N N 3 : I @.%.%.%.@.$.I I N N D A . . 2.x x ",
"l.v.a.x.9 f y 0 w $.$.$.$.&.&.$.I L A Z H H r r N N $ q I $.$.%.%.I I I I e S H r N N N ; * I L @.#.%.@.I I I N N Z Z X X 2.k.k.",
"b.v.a.x.s a C 0 w $.$.$.$.&.&.$.L L A Z H G r r N N $ e K %.$.%.%.I I I I y B J N r N N * ; @.Y @.%.&.$.@.I I N N Z Z X X >.k.k.",
"m m z z s a r 0 w Y Y $.%.$.$.$.$.L A A H H C N r N % e I $.%.%.%.I I I I t Z J N N N N ; 3 L L $.%.%.Y $.I $.V N A A . . 8.v z ",
"4.4.4.4.k a y 1 0 Y Y $.@.%.%.I L I A A H G N C N r % e K %.$.#.%.I I I $.e Z G N N N N ; * L @.$.%.%.I I I I N N A A . X 8.<.<.",
"n.n.s.s.9 a u 1 1 I Y $.$.&.&.@.@.$.A D G G r N r N % e L $.%.#.%.I I I I e Z H N N N N * * L Y %.%.%.$.$.I Y V N A F . @ 8.c.c.",
"r.r.l l s a p 1 w Y I $.$.%.%.$.I I D G G J N C N y & e L $.$.#.%.I $.I $.e Z J N N N N * * @.@.$.%.%.$.$.I I N N A A @ @ 0.w.w.",
"u.r.l l s a p 0 1 I I $.$.%.%.L $.I D D H H C r N r & r K %.%.@.%.$.Y $.$.e Z H N N N N * * @.@.$.$.&.$.I I $.N B A A . . 8.r.u.",
"n.v.c.c.9 a u 1 1 I Y $.@.%.%.$.I $.D D G H N N N V % e L $.$.%.%.$.$.$.I r B H B N B N * & @.Y $.&.&.Y $.I I N N A A . + 2.i.i.",
"v.v.c.c.s a u 1 1 Y Y $.$.%.&.$.$.I A A H G N N N B % e K %.%.%.%.I $.$.$.r S H N N N N * & @.L $.%.&.$.$.I I C N A A . + 0.i.i.",
"w.w.k k 9 a i < < I Y @.$.$.%.I I $.S S J H V C N r % q K @.$.%.$.$.Y $.$.t Z H N N N N & * L @.$.%.%.$.I I I B.B.Z Z + + 2.f.d.",
"w.r.l k l a e < < K I @.%.%.%.I I I S S H H r C N N % e I $.%.%.%.$.$.I $.y Z H N N N N & & @.L $.%.%.$.I I I B.B.Z Z   + 9.g.d.",
"4.5.6.6.x f u < < P Y $.$.%.#.$.$.I S S G H C N C u % q K @.$.%.%.Y $.$.I t Z H N N N N * * L @.%.%.%.$.$.I I M.M.D D + + 0._ _ ",
"5.5.6.6.l f u < < Y Y %.$.%.#.$.I $.S S H H r C C C % e K %.%.#.%.I $.$.$.t Z K N r N N * * L @.$.%.%.$.I I I M.M.D D . . 0._ _ ",
"r.r.9 9 9 a r : < P U $.$.#.%.@.$.I N V J H r N N N % q K $.$.#.%.Y $.I @.r Z K N N N N * * $.$.%.%.#.I $.I I N.N.D F + + =.w.w.",
"r.r.k k s f u < < P U %.$.%.#.$.I I V V P H C N r N % q K $.$.#.%.$.$.$.$.e Z H N N N N > * $.$.$.%.%.$.$.I I N.N.S Z . . 9.r.w.",
"x l z n s f C : : P P $.%.#.#.@.I I V N G J C N N N % q K $.$.%.#.$.$.$.$.e Z H N N C B > > @.@.$.%.%.I I I I B B A D o o 2.k k ",
"r.r.l l k f r : : P Y %.$.$.%.$.$.$.y r H H r N N N X q P $.$.%.%.$.$.$.$.e B H N N V C > > @.%.%.%.%.$.I I I N r Z Z o . 9.w.w.",
"r.g.l k s a r , : P P $.@.$.@.$.$.I N N J H N r N N $ 0 K $.$.%.%.Y $.$.I e Z H N N N N > > #.@.$.%.%.$.I I I N N Z Z . + 8.u.w.",
"x x x l l f y : ; Y Y $.%.%.#.I I I t C H J N N N r X 0 K $.%.%.%.$.$.$.$.q B H N N N N > ; #.@.$.%.&.$.$.I I N N A A + . 9.k k ",
"z z x l l f t ; : Y Y %.%.%.#.$.I I r r H H N N N N X q K %.$.$.&.$.Y $.$.e Z H N N N N > > #.@.%.%.%.$.$.I I N N A A o + 9.k k ",
"z.z.n.z.s f p , > I P $.%.%.%.I $.$.e e G H C r N r $ 0 H %.%.%.$.I $.$.@.q B G r N r N ; ; $.#.$.%.%.$.$.$.I N V Z Z . . 3.c.n.",
"z.z.n.l.l a u : , Y Y #.@.#.%.$.I $.e e G G y V N N X 0 K $.#.%.%.$.Y $.$.q B J r r r r ; ; $.$.$.%.%.I $.$.$.V N Z Z . . 9.k.a.",
"k k +.+.s a u : : Y Y @.#.#.%.$.I I e e H H r N N V $ q K $.@.%.%.$.$.$.$.e S H N N C B * ; %.#.%.%.%.$.$.I I V N A A . . 0.k 8 ",
"k k +.+.s a u : , Y Y @.#.#.#.$.I $.e e H H B N V N $ a H @.@.&.%.$.$.I $.e B H N N N N > > #.#.$.%.%.$.I I I N N A A . o 0.8 8 ",
"m.m.b.v.k a u : : P P #.%.%.#.$.I $.q e G G r N N N $ q H %.#.%.%.$.$.$.I q B H N N N N * ; @.#.%.$.%.$.$.I I V N S S . o 1.n.n.",
"m.m.b.b.9 a i : ; P H %.$.#.#.I I $.e e G G N N N N % q H %.$.%.%.$.$.$.$.w B G N r B N > > $.$.$.%.$.$.$.I I V N Z Z . o :.v.v.",
"W W l l l f r < < P U $.%.#.%.$.I I q q H H N N N N $ 0 H %.#.%.%.$.Y I I i B H N N N N * * %.$.$.%.&.$.$.I I V N A A . o 0.) X.",
"n.n.n.n.s f r ; : P P $.#.%.%.$.$.I q e A G C r N N X 0 H %.%.%.%.$.$.I $.q B J C r N N > * $.%.#.#.&.Y $.I $.N N A Z o + :.c.x.",
"n.n.n.n.l f i : ; P P %.%.%.%.$.I I e e A G N N r N X q H %.$.%.%.$.I $.$.q B J V y N N * > $.%.@.%.%.$.$.I $.N N Z Z . + >.c.s."
};
