/* XPM */
static char *result[] = {
/* columns rows colors chars-per-pixel */
"64 64 8 1 ",
"  c black",
". c #061F0D",
"X c #0B3E1B",
"o c #177D36",
"O c #366544",
"+ c #42A35F",
"@ c #6DCA89",
"# c #AEEADB",
/* pixels */
"@@  @@@@@@@  @@ O@@@@@@@  @@@@@@@oo@@@@@@@  @@@@@@@  @@@@@@@@@@@",
"@@  @@@@@@@  @@ O@@@@@@@  @@@@@@@oo@@@@@@@  @@@@@@@  @@@@@@@@@@@",
"  oooX oo  oo  ooo  oo  oooX oo  oooo Xo  oooo  oX oooo  oo  o  ",
"  oooX oo  oo  ooo  oo  oooX oo  oooo Xo  oooo  oX oooo  oo  o  ",
"@@@@ooo  ooooooooooo  ooooooooooooooooX oooooooo Xooooooo  ooo@@",
"@@@@XXX  XXXXXXXXXXX  XXXXXXXXXXXXXXXX. XXXXXXXX .XXXXXXX  XXo@@",
"@@@@                                                         o@@",
"@@         oo  oX   oo       oo  oo   Xo        oX oo    oo  o@@",
"@@         oo  oX   oo       oo  oo   Xo        oX oo    oo  o@@",
"ooooooo           oooo                Xo               oooo  ooo",
"ooooooo           oooo                Xo               oooo  ooo",
"@@  oX   ooooooooooooo     Xooooooooo Xo      ooooooooo  oo  o@@",
"@@  oX   ooooooooooooo     Xooooooooo Xo      ooooooooo  oo  o@@",
"    ooo  ooooooooooooo     Xooooooooo Xo      ooooooooooooo  ooo",
"    ooo  ooooooooooooo     Xooooooooo Xo      ooooooooooooo  ooo",
"@@  ooo  ooooooooooooo     Xooooooooo Xo      ooooooooo  oo  o@@",
"OO  ooo  ooooooooooooo     Xooooooooo Xo      oooooooooXXoo  o++",
"    ooo  ooooooooooooo     Xooooooooo Xo      ooooooooooooo  ooo",
"@@@@     ooooooooo  oo     Xooooooooo Xo      ooooooooooooo  o@@",
"@@@@     ooooooooo  oo     Xooooooooo Xo      ooooooooooooo  o@@",
"    oX   ooooooooo  oo  oo Xooooooooo Xo      ooooooooooooo  o  ",
"    oX   ooooooooo  oo  oo Xooooooooo Xo      ooooooooooooo  o  ",
"@@@@ Xo  ooooooooo  oo     Xooooooooo Xo      ooooooooo  oo  o@@",
"@@@@ Xo  ooooooooo  oo     Xooooooooo Xo      ooooooooo  oo  o@@",
"@@       ooooooooooooo     Xooooooooo Xo      ooooooooo  oo  o@@",
"@@       ooooooooooooo     Xooooooooo Xo      ooooooooo  oo  o@@",
"@@@@oX   ooooooooooooo     Xooooooooo Xo      ooooooooo  oo  o@@",
"@@++oX   ooooooooooooo     Xooooooooo Xo      ooooooooo  oo  o@@",
"@@oooX   ooooooooooooo     Xooooooooo Xo      ooooooooo  oo  o@@",
"  oo Xo  ooooooooooooo     Xooooooooo Xo      ooooooooo  oo  o  ",
"  oo Xo  ooooooooooooo     Xooooooooo Xo      ooooooooo  oo  o  ",
"@@oo Xo  ooooooooooooo     Xooooooooo Xo      ooooooooo  oo  o@@",
"@@oo Xo  ooooooooooooo     Xooooooooo Xo      ooooooooo  oo  o@@",
"     Xo  ooooooooooooo     Xooooooooo Xo      ooooooooo  oo  ooo",
"     Xo  ooooooooooooo     Xooooooooo Xo      ooooooooo  oo  ooo",
"@@@@     ooooooooooooo     Xooooooooo Xo      ooooooooo  oo  o@@",
"@@@@     ooooooooooooo     Xooooooooo Xo      ooooooooo  oo  o@@",
"oooo     ooooooooooooo     Xooooooooo Xo      ooooooooo  oo  ooo",
"++++     ooooooooooooo     Xooooooooo Xo      ooooooooo  oo  o++",
"@@@@     ooooooooooooo     Xooooooooo Xo      ooooooooo  oo  o@@",
"@@       ooooooooooooo     Xooooooooo Xo      ooooooooo  oo  o@@",
"@@       ooooooooooooo     Xooooooooo Xo      ooooooooo  oo  o@@",
"@@@@     ooooooooooooo     Xooooooooo Xo      ooooooooo  oo  o@@",
"@@@@     ooooooooooooo     Xooooooooo Xo      ooooooooo  oo  o@@",
"@@       ooooooooooooo     Xooooooooo Xo      ooooooooo##oo  o@@",
"@@       ooooooooooooo     Xooooooooo Xo      ooooooooo##oo  o@@",
"oooo     ooooooooooooo     Xooooooooo Xo      ooooooooo##oo  ooo",
"oooo     ooooooooooooo     Xooooooooo Xo      ooooooooo##oo  ooo",
"@@       ooooooooooooo     Xooooooooo Xo      ooooooooo##oo  o@@",
"@@       ooooooooooooo     Xooooooooo Xo      ooooooooo##oo  o@@",
"  oo     ooooooooooooo     Xooooooooo Xo      ooooooooo  oo  o  ",
"@@       ooooooooo  oo     Xooooooooo Xo      ooooooooo  oo  o@@",
"@@       ooooooooo  oo     Xooooooooo Xo      ooooooooo  oo  o@@",
"oo       ooooooooo  oo     Xooooooooo Xo      ooooooooo  oo  o  ",
"oo       ooooooooo  oo     Xooooooooo Xo      ooooooooo  oo  o  ",
"@@@@     ooooooooo  oo     Xooooooooo Xo      ooooooooo  oo  o@@",
"@@@@     ooooooooo  oo     Xooooooooo Xo      ooooooooo  oo  o@@",
"  oo     ooooooooo  oo     Xooooooooo Xo      ooooooooo  oo  o  ",
"  oo     ooooooooo  oo     Xooooooooo Xo      ooooooooo  oo  o  ",
"@@@@     ooooooooo  oo     Xooooooooo Xo      ooooooooo  oo  o@@",
"@@@@     ooooooooo  oo     Xooooooooo Xo      ooooooooo  oo  o@@",
"oo       ooooooooo  oo     Xooooooooo Xo      ooooooooo  oo  ooo",
"@@@@     ooooooooo  oo     Xooooooooo Xo      ooooooooo  oo  o@@",
"@@@@     ooooooooo  oo     Xooooooooo Xo      ooooooooo  oo  o@@"
};
