/* XPM */
static char *result[] = {
/* columns rows colors chars-per-pixel */
"64 64 8 1 ",
"  c black",
". c #1A2128",
"X c #334251",
"o c #4D7684",
"O c #6785A2",
"+ c #6697AC",
"@ c #66A9B6",
"# c #65CDCB",
/* pixels */
"  OOOOOOOOOOOOOOOOOOOO       OOOOOOOOOOO         XOOOOOOOOOOOOOO",
"  OOOOOOOOOOOOOOOOOOOO       OOOOOOOOOOO         XOOOOOOOOOOOOOO",
"OOOOOOOOOOOOOOOOOOOOOO       OOOOOOOOOOO         XOOOOOOOOOOO   ",
"OOOOOOOOOOOOOOOOOOOOOO       OOOOOOOOOOO         XOOOOOOOOOOO   ",
"OOOOOOOOOOOOOOO#@OOOOOOOOOOOOOOOOOOOO#@OOO##OOOOOOOOOOO#########",
"OOOOOOOXXXXXXXX@oXXXXXXXXXOOOOOOOOOOO@+OOO@@OOXXXXXXXOO@@@@@@@@@",
"OOOOOOO        OX         OOOOOOOOOOOOOOOOOOOO       OOOOOOOOOOO",
"OOOOOOO        OX         OOOOOOOOOOOOOOOOOOOOOO XO  OOOOOOOOOOO",
"OOOOOOO        OX         OOOOOOOOOOOOOOOOOOOOOO XO  OOOOOOOOOOO",
"OOOOOOOOOOO  OOOOO  OOOOOOOOO##         OOOOOOOOOOOOOOOOOOOOOOOO",
"OOOOOOOOOOO  OOOOO  OOOOOOOOO##         OOOOOOOOOOOOOOOOOOOOOOOO",
"##OOOOOOOOO         OOOOOOOOOOO         OOOOOOOOOOOOOOOOO  OOOOO",
"##OOOOOOOOO         OOOOOOOOOOO         OOOOOOOOOOOOOOOOO  OOOOO",
"OO  OOOOOOOOO       OOOOOOOOOOOOO  OOOOOOO    OOOX         OOOOO",
"OO  OOOOOOOOO       OOOOOOOOOOOOO  OOOOOOO    OOOX         OOOOO",
"     XOOOOOOOOOOOOOOOOOOOO         OOOOOOOOOOO       OOOOOOOOOOO",
"     XOOOOOOOOOOOOOOOOOOOO         OOOOOOOOOOO       OOOOOOOOOOO",
"     XOOOOOOOOOOOOOOOOOOOO         OOOOOOOOOOO       OOOOOOOOOOO",
"OOOOOOOOOOOOOOOOOOOOOOOOOOO@#OOOO#####@OOO##OO##OOOOOOOOOOOOOOOO",
"OOOOOOOOOOOOOOOOOOOOOOOOOOO@#OOOO#####@OOO##OO##OOOOOOOOOOOOOOOO",
"OO         OOOOOOOOOOOOOOOOOOOOOOOOOOOOO                   OO   ",
"OO         OOOOOOOOOOOOOOOOOOOOOOOOOOOOO                   OO   ",
"OO         OOOOOOOOOOOOOOOOOO##OOOOOOOOO                   OO   ",
"OO         OOOOOOOOOOOOOOOOOO##OOOOOOOOO                   OO   ",
"OOOOO@#OOOOOOOO#@OOOOOOOOOOOOOOOOOOOOOOOOOOOOOOOOOOOO##OOOOOOOOO",
"OOOOO@#OOOOOOOO#@OOOOOOOOOOOOOOOOOOOOOOOOOOOOOOOOOOOO##OOOOOOOOO",
"OOOOO@#OOOOOOOOOOOOOOOOOOO   OOOO  OOOOOOO  OOOOOOOOOOOOOOOOOOOO",
"OOOOO+@OOOOOOOOOOOOOOOOOOO .XXXXXXXOOXXXXX  OOOOOOOOOOOOOOOOOOOO",
"OOOOOOOOOOOOOOOOOOOOOOOOOO XO    OOOO       OOOOOOOOOOOOOOOOOOOO",
"OO         OOOOOOOOO##OOOOOOO##OOOOOOOOOOOOOOOOOOX       OOOOOOO",
"OO         OOOOOOOOO##OOOOOOO##OOOOOOOOOOOOOOOOOOX       OOOOOOO",
"OO         OOOOOOOOOOOOOOOOOO##OOOOOO XOOOOOOOOOOX         OOOOO",
"OO         OOOOOOOOOOOOOOOOOO##OOOOOO XOOOOOOOOOOX         OOOOO",
"OOOOOOOOO##OOOOOOOOO##OOOOO@#######OOO@#OOOO##OOOOOOOOO##OO##O##",
"OOOOOOOOO##OOOOOOOOO##OOOOO@#######OOO@#OOOO##OOOOOOOOO##OO##O##",
"OOOOOOO      OOOOOOOOOOOOOOOOOOOOOO         ##OOOOOOOOO         ",
"OOOOOOO      OOOOOOOOOOOOOOOOOOOOOO         ##OOOOOOOOO         ",
"OOOOOOO        OOOOOOOOOOOOOOOOOOOO         OOOOOOOOO##         ",
"@@OOOOOXXXXXXXXOOOOOOOOOOOOOOOOOOOOXX .XXXXXOOOOOOOOO@@XXXX     ",
"##OOOOOOOOOOOOOOOOOOOOOOOOOOOOOOOOOOO XOOOOOOOOOOOOOOOOOOOO     ",
"OOOOOOOOOOO    OX OOOOOOOOOOO##       XOOOOOOOOOOOOOOOOOOOO     ",
"OOOOOOOOOOO    OX OOOOOOOOOOO##       XOOOOOOOOOOOOOOOOOOOO     ",
"OOOOOOOOOOO  OO XOOOOOOOOOOOO##         OOOOOOOOOX              ",
"OOOOOOOOOOO  OO XOOOOOOOOOOOO##         OOOOOOOOOX              ",
"     XOOOOOOOOOOOOOOOOOOOO       OOOOOOOOOOO##OOOOOOOOO         ",
"     XOOOOOOOOOOOOOOOOOOOO       OOOOOOOOOOO##OOOOOOOOO         ",
"  OO XOOOOOOOOOOOO  OO  OO         OOOOOOOOO##   XO  OO         ",
"  OO XOOOOOOOOOOOO  OO  OO         OOOOOOOOO##   XO  OO         ",
"OOOOO@###OOOOOO#@O########O@#OO######O@##########@OOO######OOOOO",
"OOOOO@###OOOOOO#@O########O@#OO######O@##########@OOO######OOOOO",
"OOOOOOOOOOOOOOOOX   OOOOOOOOOOOOOOOOO XOOOOOOOOOOOOOOOOOOOO     ",
"OOOOOOOOOOOOOOOOOOOOOOOOOOOOO##OOOO  OOOOOOOOOOOOOOOOOOOOOO     ",
"OOOOOOOOOOOOOOOOOOOOOOOOOOOOO##OOOO  OOOOOOOOOOOOOOOOOOOOOO     ",
"OOOOOOOOOOOOOOOOOOOOOOOOOOOOOOOOOOOOO XOOOOOOOOOOOOOOOOOOOOOOOOO",
"OOOOOOOOOOOOOOOOOOOOOOOOOOOOOOOOOOOOO XOOOOOOOOOOOOOOOOOOOOOOOOO",
"     XO        OOOOOOOOOOOOOOOOOOOOOO       OO       OO       OO",
"     XO        OOOOOOOOOOOOOOOOOOOOOO       OO       OO       OO",
"     XO        OOOOOOOOOOOOOO      OO XO    OO       OOOOOOOO OO",
"     XO        OOOOOOOOOOOOOO      OO XO    OO       OOOOOOOO OO",
"OOOOOOOOOOOOOOOOOOOOOO       ##OOOOOOOOO         XOOOOOOOOO     ",
"OOOOOOOOOOOOOOOOOOOOOO       ##OOOOOOOOO         XOOOOOOOOO     ",
"OOOOOOOOOOOOOOOOOOOOOO       ##OOOOOOOOO         XOOOOOOOOOOO   ",
"OOOOOOOOOOOOOOOOOOOOOOOOOO#@O##OOOO###@OOOOOOOOOO@#####OO##OOOOO",
"OOOOOOOOOOOOOOOOOOOOOOOOOO#@O##OOOO###@OOOOOOOOOO@#####OO##OOOOO"
};
