/* XPM */
static char *result[] = {
/* columns rows colors chars-per-pixel */
"64 64 9 1 ",
"  c #300030",
". c #3C0A42",
"X c #481454",
"o c #602878",
"O c #944828",
"+ c #C66C24",
"@ c #AC5C4C",
"# c #F89020",
"$ c #F8F088",
/* pixels */
"##  #######  ## O#######  #######  #######  #######  ###########",
"##  #######  ## O#######  #######  #######  #######  ###########",
"  oo   oo  oo   Xo  oo  oooX oo    oo Xo  oooo  oX oooo  oo  o  ",
"  oo   oo  oo   Xo  oo  oooX oo    oo Xo  oooo  oX oooo  oo  o  ",
"####ooo  oo  oo   oo  oo   Xo  oo    oX oo    oo Xo    oo  ooo##",
"####XXX  XX  XX   XX  XX   .X  XX    X. XX    XX .X    XX  XXo##",
"####                                                         o##",
"##                                                           o##",
"##                                                           o##",
"oooo                                                         ooo",
"oooo                                                         ooo",
"##         #### O#           ########         #####          o##",
"##         #### O#           ########         #####          o##",
"           #### O#           ########         #########      o  ",
"           #### O#           ########         #########      o  ",
"##         #######           ########         #########      o##",
"OO         #######           ########         #########      oOO",
"           #######           ########         #########      o  ",
"####       ####              ########         #########      o##",
"####       ####              ########         #########      o##",
"           #####O            ########         #########      o  ",
"           #####O            ########         #########      o  ",
"####       #######           ########         #########      o##",
"####       #######           ########         #########      o##",
"##         #######           ########         #########      o##",
"##         #######           ########         #########      o##",
"oo##     #########           ########         #########      ooo",
"@@@@     #########           ########         #########      o@@",
"##oo     #########           ########         #########      o##",
"  oo     #########           ########         #########      o  ",
"  oo     #########           ########         #########      o  ",
"##       #######O            ########         #####  ##      o##",
"##       #######O            ########         #####  ##      o##",
"         #######O            ####  ##           #######      o  ",
"         #######O            ####  ##           #######      o  ",
"####     #######O            ####  ##           #######      o##",
"####     #######O            ####  ##           #######      o##",
"           #######           ########           #######      o  ",
"OOOO       #####+O           ####OO##           #######      oOO",
"####       #####O            ####  ##           #######      o##",
"##         #######           ########         #########      o##",
"##         #######           ########         #########      o##",
"####       #######           ########           #######      o##",
"####       #######           ########           #######      o##",
"##         #######           ########           #####  $$    o##",
"##         #######           ########           #####  $$    o##",
"oooo       #######           ########           #####  $$    ooo",
"oooo       #######           ########           #####  $$    ooo",
"##         #### O#           ########         #######  $$    o##",
"##         #### O#           ########         #######  $$    o##",
"           #######           ########         #########      o  ",
"##         #######           ########         #########      o##",
"##         #######           ########         #########      o##",
"           #######           ########         #######        o  ",
"           #######           ########         #######        o  ",
"####       #######           ########         #########      o##",
"####       #######           ########         #########      o##",
"  oo       #######           ########         #########      o  ",
"  oo       #######           ########         #########      o  ",
"####       #######           ########         #########      o##",
"####       #######           ########         #########      o##",
"oo         #######           ########         #########      ooo",
"####       #######           ########         #########      o##",
"####       #######           ########         #########      o##"
};
