/* XPM */
static char *result[] = {
/* columns rows colors chars-per-pixel */
"64 64 6 1 ",
"  c #211E33",
". c #432F48",
"X c #663F5D",
"o c #AB6187",
"O c #709DCF",
"+ c #D8E8E6",
/* pixels */
"oo  ooooooo  oo Xooooooo  ooooooo  ooooooo  ooooooo  ooooooooooo",
"oo  ooooooo  oo Xooooooo  ooooooo  ooooooo  ooooooo  ooooooooooo",
"  oo   oo  oo   Xo  oo  oo   oo    oo Xo    oo  oX oooo  oo  o  ",
"  oo   oo  oo   Xo  oo  oo   oo    oo Xo    oo  oX oooo  oo  o  ",
"ooooooo      oo                      oX       oo       oo  ooooo",
"ooooXXX      XX                      X.       XX       XX  XXooo",
"oooo                                                         ooo",
"oo                                                           ooo",
"oo                                                           ooo",
"oooo                                                         o  ",
"oooo                                                         o  ",
"oo         ooooooo         Xooooooooo         ooooooooo      ooo",
"oo         ooooooo         Xooooooooo         ooooooooo      ooo",
"           ooooooo         Xooooooooo         ooooooooo      o  ",
"           ooooooo         Xooooooooo         ooooooooo      o  ",
"oo         ooooooo         Xooooooooo         ooooooooo      ooo",
"XX         ooooooo         Xooooooooo         ooooooooo      oXX",
"           ooooooo         Xooooooooo         ooooooooo      o  ",
"oooo       ooooooo           oooooooo         ooooooooo      ooo",
"oooo       ooooooo           oooooooo         ooooooooo      ooo",
"           ooooooo         Xooooooooo         ooooooooo      o  ",
"           ooooooo         Xooooooooo         ooooooooo      o  ",
"oooo       ooooooo         Xooooooooo         ooooooooo      ooo",
"oooo       ooooooo         Xooooooooo         ooooooooo      ooo",
"oo       ooooooooo         Xooooooooo         ooooooooo      ooo",
"oo       ooooooooo         Xooooooooo         ooooooooo      ooo",
"oooo     ooooooooo         Xooooooooo         ooooooooo      ooo",
"oooo     ooooooooo         Xooooooooo         ooooooooo      ooo",
"oooo     ooooooooo         Xooooooooo         ooooooooo      ooo",
"  oo     ooooooooo         Xooooooooo         ooooooooo      o  ",
"  oo     ooooooooo         Xooooooooo         ooooooooo      o  ",
"oo       ooooooooo         Xooooooooo         ooooooooo      ooo",
"oo       ooooooooo         Xooooooooo         ooooooooo      ooo",
"         ooooooooo         Xooooooooo         ooooooooo      o  ",
"         ooooooooo         Xooooooooo         ooooooooo      o  ",
"oooo     ooooooooo         Xooooooooo         ooooooooo      ooo",
"oooo     ooooooooo         Xooooooooo         ooooooooo      ooo",
"         ooooooooo         Xooooooooo         ooooooooo      o  ",
"XXXX     ooooooooo         Xooooooooo         ooooooooo      oXX",
"oooo     ooooooooo         Xooooooooo         ooooooooo      ooo",
"oo       ooooooooo           oooooooo         ooooooooo      ooo",
"oo       ooooooooo           oooooooo         ooooooooo      ooo",
"oooo     ooooooooo         Xooooooooo         ooooooooo      ooo",
"oooo     ooooooooo         Xooooooooo         ooooooooo      ooo",
"oo       ooooooooo           oooooooo         ooooooooo++    ooo",
"oo       ooooooooo           oooooooo         ooooooooo++    ooo",
"oooo     ooooooooo           oooooooo         oooooooooOO    ooo",
"oooo     ooooooooo           oooooooo         oooooooooOO    ooo",
"oo       ooooooooo           oooooooo         oooooooooOO    ooo",
"oo       ooooooooo           oooooooo         oooooooooOO    ooo",
"         ooooooooo           oooooooo         ooooooooo      o  ",
"oo       ooooooooo           oooooooo         ooooooooo      ooo",
"oo       ooooooooo           oooooooo         ooooooooo      ooo",
"         ooooooooo           oooooooo         ooooooooo      o  ",
"         ooooooooo           oooooooo         ooooooooo      o  ",
"oooo     ooooooooo           oooooooo         ooooooooo      ooo",
"oooo     ooooooooo           oooooooo         ooooooooo      ooo",
"  oo     ooooooooo           oooooooo         ooooooooo      o  ",
"  oo     ooooooooo           oooooooo         ooooooooo      o  ",
"oooo       ooooooo           oooooooo         ooooooooo      ooo",
"oooo       ooooooo           oooooooo         ooooooooo      ooo",
"           ooooooo           oooooooo         ooooooooo      ooo",
"oooo       ooooooo           oooooooo         ooooooooo      ooo",
"oooo       ooooooo           oooooooo         ooooooooo      ooo"
};
